# Blender 4.5.3 LTS
# www.blender.org
o Cube.022
v -0.304817 -0.175826 -0.084315
v -0.304817 0.175826 -0.084315
v -0.304817 0.128696 0.034953
v -0.304817 0.175826 -0.026226
v 0.000000 -0.175826 -0.084315
v 0.000000 0.175826 -0.084315
v 0.000000 -0.175826 0.034953
v 0.000000 0.175826 -0.026226
v 0.000000 0.128696 0.034953
v -0.304817 -0.175826 0.034953
v 0.304817 -0.175826 -0.084315
v 0.304817 0.175826 -0.084315
v 0.304817 0.128696 0.034953
v 0.304817 0.175826 -0.026226
v 0.304817 -0.175826 0.034953
v -0.152408 -0.175826 -0.084315
v -0.152408 0.175826 -0.084315
v -0.152408 0.175826 -0.026226
v -0.152408 0.128696 0.034953
v -0.152408 -0.175826 0.034953
v 0.152408 -0.175826 -0.084315
v 0.152408 0.175826 -0.084315
v 0.152408 0.175826 -0.026226
v 0.152408 0.128696 0.034953
v 0.152408 -0.175826 0.034953
v 0.000000 0.027189 0.034953
v -0.304817 0.027189 0.034953
v -0.304817 -0.074319 0.034953
v 0.304817 0.027189 0.034953
v 0.304817 -0.074319 0.034953
v -0.152408 0.027189 0.034953
v -0.152408 -0.074319 0.034953
v 0.152408 -0.074319 0.034953
v 0.152408 0.027189 0.034953
v -0.304817 0.188363 -0.066227
v -0.304817 0.188363 -0.044314
v 0.304817 0.188363 -0.066227
v 0.304817 0.188363 -0.044314
v -0.304817 0.253823 -0.066227
v -0.304817 0.253823 -0.044314
v 0.305175 0.253823 -0.066227
v 0.305175 0.253823 -0.044314
v -0.304817 0.279850 -0.066227
v -0.304817 0.279850 -0.044314
v 0.305175 0.279850 -0.066227
v 0.305175 0.279850 -0.044314
v -0.094598 0.175826 -0.084315
v -0.094598 0.128696 0.034953
v -0.094598 -0.175826 0.034953
v -0.094598 -0.175826 -0.084315
v -0.094598 0.175826 -0.026226
v -0.094598 -0.074319 0.034953
v -0.094598 0.027189 0.034953
v 0.077336 0.175826 -0.084315
v 0.077336 0.128696 0.034953
v 0.077336 -0.175826 0.034953
v 0.077336 -0.175826 -0.084315
v 0.077336 0.175826 -0.026226
v 0.077336 -0.074319 0.034953
v 0.077336 0.027189 0.034953
v 0.000000 -0.114170 0.034953
v -0.304817 -0.114170 0.034953
v 0.304817 -0.114170 0.034953
v -0.152408 -0.114170 0.034953
v 0.152408 -0.114170 0.034953
v -0.094598 -0.114170 0.034953
v 0.077336 -0.114170 0.034953
v 0.000000 -0.019053 0.034953
v -0.304817 -0.019053 0.034953
v 0.304817 -0.019053 0.034953
v -0.152408 -0.019053 0.034953
v 0.152408 -0.019053 0.034953
v -0.094598 -0.019053 0.034953
v 0.077336 -0.019053 0.034953
v -0.094598 -0.019053 0.010443
v -0.094598 -0.074319 0.010443
v 0.077336 -0.114170 0.010443
v 0.077336 -0.074319 0.010443
v -0.094598 -0.114170 0.010443
v 0.000000 -0.114170 0.010443
v 0.077336 -0.019053 0.010443
v 0.000000 -0.019053 0.010443
v 0.000000 -0.074319 0.010443
v 0.042292 0.108412 0.012044
v 0.057061 0.102294 0.012044
v 0.042292 0.108412 0.053818
v 0.027523 0.102294 0.012044
v 0.021405 0.087525 0.012044
v 0.027523 0.102294 0.053818
v 0.021405 0.087525 0.053818
v 0.027523 0.072756 0.053818
v 0.042292 0.066638 0.053818
v 0.027523 0.072756 0.012044
v 0.042292 0.066638 0.012044
v 0.057061 0.072756 0.012044
v 0.063179 0.087525 0.012044
v 0.057061 0.072756 0.053818
v 0.063179 0.087525 0.053818
v 0.057061 0.102294 0.053818
v 0.005827 0.080021 0.017535
v -0.003417 0.072712 0.017535
v 0.005827 0.080021 0.048327
v 0.007196 0.091725 0.017535
v -0.000112 0.100969 0.017535
v 0.007196 0.091725 0.048327
v -0.000112 0.100969 0.048327
v -0.011816 0.102338 0.048327
v -0.021060 0.095030 0.048327
v -0.011816 0.102338 0.017535
v -0.021060 0.095030 0.017535
v -0.022429 0.083326 0.017535
v -0.015121 0.074082 0.017535
v -0.022429 0.083326 0.048327
v -0.015121 0.074082 0.048327
v -0.003417 0.072712 0.048327
v -0.037867 0.073575 0.017535
v -0.049639 0.073054 0.017535
v -0.037867 0.073575 0.048327
v -0.029911 0.082268 0.017535
v -0.030433 0.094041 0.017535
v -0.029911 0.082268 0.048327
v -0.030433 0.094041 0.048327
v -0.039126 0.101996 0.048327
v -0.050898 0.101475 0.048327
v -0.039126 0.101996 0.017535
v -0.050898 0.101475 0.017535
v -0.058854 0.092782 0.017535
v -0.058332 0.081010 0.017535
v -0.058854 0.092782 0.048327
v -0.058332 0.081010 0.048327
v -0.049639 0.073054 0.048327
v -0.101775 0.088610 0.015008
v -0.095768 0.100943 0.015008
v -0.101775 0.088610 0.050854
v -0.097303 0.075642 0.015008
v -0.084970 0.069635 0.015008
v -0.097303 0.075642 0.050854
v -0.084970 0.069635 0.050854
v -0.072002 0.074108 0.050854
v -0.065995 0.086440 0.050854
v -0.072002 0.074108 0.015008
v -0.065995 0.086440 0.015008
v -0.070468 0.099408 0.015008
v -0.082800 0.105415 0.015008
v -0.070468 0.099408 0.050854
v -0.082800 0.105415 0.050854
v -0.095768 0.100943 0.050854
v 0.171908 0.073851 0.014985
v 0.161749 0.083095 0.014985
v 0.171908 0.073851 0.050878
v 0.185629 0.074498 0.014985
v 0.194873 0.084658 0.014985
v 0.185629 0.074498 0.050878
v 0.194873 0.084658 0.050878
v 0.194226 0.098378 0.050878
v 0.184066 0.107622 0.050878
v 0.194226 0.098378 0.014985
v 0.184066 0.107622 0.014985
v 0.170346 0.106975 0.014985
v 0.161102 0.096816 0.014985
v 0.170346 0.106975 0.050878
v 0.161102 0.096816 0.050878
v 0.161749 0.083095 0.050878
v 0.257765 0.124072 0.013511
v 0.241741 0.132985 0.001970
v 0.257765 0.157409 0.039257
v 0.279407 0.124696 0.012703
v 0.293988 0.134491 0.000020
v 0.279407 0.158033 0.038449
v 0.293988 0.167828 0.025767
v 0.292967 0.181056 0.008639
v 0.276943 0.189969 -0.002901
v 0.292967 0.147719 -0.017108
v 0.276942 0.156632 -0.028648
v 0.255301 0.156008 -0.027840
v 0.240720 0.146213 -0.015157
v 0.255301 0.189345 -0.002093
v 0.240720 0.179550 0.010589
v 0.241741 0.166322 0.027717
vn -0.5774 -0.5774 -0.5774
vn -0.6999 0.5050 -0.5050
vn -0.6199 0.3464 0.7041
vn -0.7207 0.6563 0.2235
vn -0.0000 -0.7071 -0.7071
vn -0.0000 0.7071 -0.7071
vn -0.0000 -0.7071 0.7071
vn -0.0000 0.9466 0.3223
vn -0.0000 0.4414 0.8973
vn -0.5774 -0.5774 0.5774
vn 0.5774 -0.5774 -0.5774
vn 0.6999 0.5050 -0.5050
vn 0.6199 0.3464 0.7041
vn 0.7207 0.6563 0.2235
vn 0.5774 -0.5774 0.5774
vn -0.0000 -0.0000 1.0000
vn -0.7071 -0.0000 0.7071
vn 0.7071 -0.0000 0.7071
vn -1.0000 -0.0000 -0.0000
vn 1.0000 -0.0021 -0.0000
vn -0.0000 0.7071 0.7071
vn 0.8172 0.4064 0.4086
vn 0.8172 0.4064 -0.4086
vn 0.3015 0.3015 0.9045
vn -0.3015 0.3015 0.9045
vn 0.3015 -0.3015 0.9045
vn -0.3015 -0.3015 0.9045
vn -0.5774 0.5774 0.5774
vn 0.5774 0.5774 0.5774
vn -0.0000 0.7764 -0.6303
vn 0.5490 0.5490 -0.6303
vn -0.0000 0.7764 0.6303
vn -0.5490 0.5490 -0.6303
vn -0.7764 -0.0000 -0.6303
vn -0.5490 0.5490 0.6303
vn -0.7764 -0.0000 0.6303
vn -0.5490 -0.5490 0.6303
vn -0.0000 -0.7764 0.6303
vn -0.5490 -0.5490 -0.6303
vn -0.0000 -0.7764 -0.6303
vn 0.5490 -0.5490 -0.6303
vn 0.7764 -0.0000 -0.6303
vn 0.5490 -0.5490 0.6303
vn 0.7764 -0.0000 0.6303
vn 0.5490 0.5490 0.6303
vn 0.6779 -0.3784 -0.6303
vn 0.2118 -0.7469 -0.6303
vn 0.6779 -0.3784 0.6303
vn 0.7469 0.2118 -0.6303
vn 0.3784 0.6779 -0.6303
vn 0.7469 0.2118 0.6303
vn 0.3784 0.6779 0.6303
vn -0.2118 0.7469 0.6303
vn -0.6779 0.3784 0.6303
vn -0.2118 0.7469 -0.6303
vn -0.6779 0.3784 -0.6303
vn -0.7469 -0.2118 -0.6303
vn -0.3784 -0.6779 -0.6303
vn -0.7469 -0.2118 0.6303
vn -0.3784 -0.6779 0.6303
vn 0.2118 -0.7469 0.6303
vn 0.3286 -0.7034 -0.6303
vn -0.2651 -0.7297 -0.6303
vn 0.3286 -0.7034 0.6303
vn 0.7297 -0.2651 -0.6303
vn 0.7034 0.3286 -0.6303
vn 0.7297 -0.2651 0.6303
vn 0.7034 0.3286 0.6303
vn 0.2651 0.7297 0.6303
vn -0.3286 0.7034 0.6303
vn 0.2651 0.7297 -0.6303
vn -0.3286 0.7034 -0.6303
vn -0.7297 0.2651 -0.6303
vn -0.7034 -0.3286 -0.6303
vn -0.7297 0.2651 0.6303
vn -0.7034 -0.3286 0.6303
vn -0.2651 -0.7297 0.6303
vn -0.7750 0.0470 -0.6303
vn -0.5147 0.5812 -0.6303
vn -0.7750 0.0470 0.6303
vn -0.5812 -0.5147 -0.6303
vn -0.0470 -0.7750 -0.6303
vn -0.5812 -0.5147 0.6303
vn -0.0470 -0.7750 0.6303
vn 0.5147 -0.5812 0.6303
vn 0.7750 -0.0470 0.6303
vn 0.5147 -0.5812 -0.6303
vn 0.7750 -0.0470 -0.6303
vn 0.5812 0.5147 -0.6303
vn 0.0470 0.7750 -0.6303
vn 0.5812 0.5147 0.6303
vn 0.0470 0.7750 0.6303
vn -0.5147 0.5812 0.6303
vn -0.2630 -0.7305 -0.6303
vn -0.7025 -0.3306 -0.6303
vn -0.2630 -0.7305 0.6303
vn 0.3306 -0.7025 -0.6303
vn 0.7305 -0.2630 -0.6303
vn 0.3306 -0.7025 0.6303
vn 0.7305 -0.2630 0.6303
vn 0.7025 0.3306 0.6303
vn 0.2630 0.7305 0.6303
vn 0.7025 0.3306 -0.6303
vn 0.2630 0.7305 -0.6303
vn -0.3306 0.7025 -0.6303
vn -0.7305 0.2630 -0.6303
vn -0.3306 0.7025 0.6303
vn -0.7305 0.2630 0.6303
vn -0.7025 -0.3306 0.6303
vn -0.2630 -0.9453 0.1929
vn -0.7025 -0.7009 -0.1236
vn -0.2630 0.0523 0.9634
vn 0.3306 -0.9282 0.1707
vn 0.7305 -0.6596 -0.1771
vn 0.3306 0.0694 0.9412
vn 0.7305 0.3381 0.5934
vn 0.7025 0.7009 0.1236
vn 0.2630 0.9453 -0.1929
vn 0.7025 -0.2967 -0.6469
vn 0.2630 -0.0523 -0.9634
vn -0.3306 -0.0694 -0.9412
vn -0.7305 -0.3381 -0.5934
vn -0.3306 0.9282 -0.1707
vn -0.7305 0.6596 0.1771
vn -0.7025 0.2967 0.6469
vt 0.841352 0.015418
vt 0.841246 0.143409
vt 0.778477 0.145664
vt 0.779347 0.016146
vt 0.828721 0.609554
vt 0.778095 0.608655
vt 0.780600 0.359954
vt 0.831227 0.360853
vt 0.165993 0.471812
vt 0.028341 0.471812
vt 0.021017 0.434095
vt 0.165993 0.435397
vt 0.176920 0.241309
vt 0.156058 0.325821
vt 0.014391 0.323534
vt 0.028156 0.239595
vt 0.975168 0.220977
vt 0.933936 0.220836
vt 0.907286 0.220745
vt 0.869561 0.220859
vt 0.837996 0.220954
vt 0.770430 0.221284
vt 0.730730 0.262903
vt 0.727057 0.318121
vt 0.940228 0.298485
vt 0.181855 0.432770
vt 0.026846 0.432770
vt 0.035147 0.345087
vt 0.181855 0.345087
vt 0.727408 0.017157
vt 0.725602 0.146676
vt 0.736707 0.607919
vt 0.739212 0.359219
vt 0.440576 0.473362
vt 0.440964 0.437195
vt 0.572494 0.439779
vt 0.569393 0.475946
vt 0.436598 0.241309
vt 0.578527 0.239595
vt 0.590541 0.331448
vt 0.436532 0.325821
vt 0.940228 0.298485
vt 0.727057 0.318121
vt 0.770430 0.221284
vt 0.869561 0.220859
vt 0.907286 0.220745
vt 0.933936 0.220836
vt 0.434108 0.432770
vt 0.434108 0.345087
vt 0.570522 0.345087
vt 0.574428 0.432770
vt 0.237929 0.432770
vt 0.237929 0.345087
vt 0.227052 0.241579
vt 0.214103 0.326159
vt 0.221724 0.472306
vt 0.221724 0.436138
vt 0.972928 0.608451
vt 0.859659 0.610103
vt 0.862165 0.361403
vt 0.943655 0.362850
vt 0.949177 0.017888
vt 0.965532 0.139204
vt 0.879605 0.142031
vt 0.879244 0.014973
vt 0.382673 0.432770
vt 0.382673 0.345087
vt 0.373788 0.241660
vt 0.373755 0.326260
vt 0.377697 0.473240
vt 0.377894 0.437272
vt 0.584036 0.605758
vt 0.617546 0.357058
vt 0.699036 0.358505
vt 0.696530 0.607206
vt 0.619361 0.021786
vt 0.676989 0.018139
vt 0.674274 0.147658
vt 0.603111 0.148844
vt 0.373120 0.085314
vt 0.435281 0.084732
vt 0.435473 0.128873
vt 0.373217 0.129676
vt 0.373528 0.190645
vt 0.436085 0.190088
vt 0.230756 0.085180
vt 0.230637 0.129491
vt 0.182696 0.128873
vt 0.182888 0.084732
vt 0.228685 0.190517
vt 0.179552 0.190088
vt 0.560620 0.083109
vt 0.565886 0.127227
vt 0.572768 0.188405
vt 0.042487 0.127227
vt 0.048148 0.083109
vt 0.034684 0.188405
vt 0.631408 0.437016
vt 0.690196 0.437016
vt 0.671851 0.453925
vt 0.649660 0.453973
vt 0.672292 0.542235
vt 0.650080 0.542486
vt 0.672292 0.542234
vt 0.650080 0.542484
vt 0.640499 0.142141
vt 0.641534 0.127752
vt 0.906934 0.117206
vt 0.906025 0.143795
vt 0.640838 0.096198
vt 0.906209 0.085648
vt 0.000000 0.000000
vt 0.309085 0.191219
vt 0.309085 0.242021
vt 0.312922 0.473114
vt 0.312922 0.437350
vt 0.309084 0.326712
vt 0.329687 0.432770
vt 0.329687 0.345087
vt 0.309085 0.016923
vt 0.372969 0.016677
vt 0.309085 0.085913
vt 0.230940 0.016623
vt 0.183185 0.016439
vt 0.056907 0.014851
vt 0.434984 0.016439
vt 0.552473 0.014851
vt 0.593097 0.444333
vt 0.593189 0.025896
vt 0.984411 0.027291
vt 0.984013 0.445676
vt 0.015787 0.445313
vt 0.015548 0.026771
vt 0.593020 0.972456
vt 0.983501 0.973684
vt 0.016257 0.973684
vt 0.657134 0.709990
vt 0.678566 0.714547
vt 0.694929 0.737223
vt 0.696638 0.764735
vt 0.680275 0.787411
vt 0.657134 0.787410
vt 0.640771 0.764734
vt 0.640771 0.732666
vt 0.677384 0.375941
vt 0.677483 0.425634
vt 0.666773 0.425806
vt 0.666729 0.376127
vt 0.688094 0.375769
vt 0.688138 0.425448
vt 0.698850 0.375733
vt 0.698750 0.425371
vt 0.640771 0.732666
vt 0.709615 0.375910
vt 0.709352 0.425495
vt 0.720338 0.376333
vt 0.719991 0.425842
vt 0.645515 0.376079
vt 0.645252 0.425665
vt 0.634529 0.425242
vt 0.634877 0.375733
vt 0.656117 0.376203
vt 0.656018 0.425842
vt 0.108739 0.784109
vt 0.093653 0.763994
vt 0.093653 0.735546
vt 0.108740 0.715430
vt 0.130075 0.715430
vt 0.145162 0.735546
vt 0.145162 0.763994
vt 0.130075 0.784109
s 1
f 49/1/7 50/2/5 5/3/5 7/4/7
f 47/5/6 6/6/6 5/7/5 50/8/5
f 17/9/6 2/10/2 4/11/4 18/12/8
f 31/13/16 19/14/9 3/15/3 27/16/17
f 10/17/10 62/18/17 28/19/17 69/20/17 27/21/17 3/22/3 4/23/4 2/24/2 1/25/1
f 18/26/8 4/27/4 3/28/3 19/29/9
f 56/30/7 7/4/7 5/3/5 57/31/5
f 54/32/6 57/33/5 5/7/5 6/6/6
f 22/34/6 23/35/8 14/36/14 12/37/12
f 34/38/16 29/39/18 13/40/13 24/41/9
f 15/17/15 11/42/11 12/43/12 14/23/14 13/44/13 29/21/18 70/45/18 30/46/18 63/47/18
f 23/48/8 24/49/9 13/50/13 14/51/14
f 51/52/8 18/26/8 19/29/9 48/53/9
f 53/54/16 48/55/9 19/14/9 31/13/16
f 47/56/6 17/9/6 18/12/8 51/57/8
f 2/58/2 17/59/6 16/60/5 1/61/1
f 10/62/10 1/63/1 16/64/5 20/65/7
f 58/66/8 55/67/9 24/49/9 23/48/8
f 60/68/16 34/38/16 24/41/9 55/69/9
f 54/70/6 58/71/8 23/35/8 22/34/6
f 12/72/12 11/73/11 21/74/5 22/75/6
f 15/76/15 25/77/7 21/78/5 11/79/11
f 67/80/25 65/81/16 33/82/16 59/83/17
f 74/84/27 72/85/16 34/38/16 60/68/16
f 66/86/24 52/87/18 32/88/16 64/89/16
f 73/90/26 53/54/16 31/13/16 71/91/16
f 65/81/16 63/92/18 30/93/18 33/82/16
f 72/85/16 70/94/18 29/39/18 34/38/16
f 64/89/16 32/88/16 28/95/17 62/96/17
f 71/91/16 31/13/16 27/16/17 69/97/17
f 14/98/14 12/99/12 37/100/20 38/101/20
f 2/98/2 4/99/4 36/100/19 35/101/19
f 38/101/20 37/100/20 41/102/22 42/103/23
f 35/101/19 36/100/19 40/104/6 39/105/21
f 42/36/23 41/37/22 45/37/15 46/36/11
f 44/106/11 43/107/15 45/108/15 46/109/11
f 39/110/21 40/107/6 42/108/23 41/111/22
f 40/107/6 44/106/11 46/109/11 42/108/23
f 43/107/15 39/110/21 41/111/22 45/108/15
f 44/112/11 40/112/6 39/112/21 43/112/15
f 68/113/7 26/114/16 53/54/16 73/90/26
f 6/115/6 47/56/6 51/57/8 8/116/8
f 26/114/16 9/117/9 48/55/9 53/54/16
f 8/118/8 51/52/8 48/53/9 9/119/9
f 17/59/6 47/5/6 50/8/5 16/60/5
f 20/65/7 16/64/5 50/2/5 49/1/7
f 68/113/7 74/84/27 60/68/16 26/114/16
f 6/115/6 8/116/8 58/71/8 54/70/6
f 26/114/16 60/68/16 55/69/9 9/117/9
f 8/118/8 9/119/9 55/67/9 58/66/8
f 22/75/6 21/74/5 57/33/5 54/32/6
f 25/77/7 56/30/7 57/31/5 21/78/5
f 7/120/7 56/121/7 67/80/25 61/122/21
f 7/120/7 61/122/21 66/86/24 49/123/7
f 20/124/7 64/89/16 62/96/17 10/125/10
f 25/126/7 15/127/15 63/92/18 65/81/16
f 49/123/7 66/86/24 64/89/16 20/124/7
f 56/121/7 25/126/7 65/81/16 67/80/25
f 32/88/16 71/91/16 69/97/17 28/95/17
f 33/82/16 30/93/18 70/94/18 72/85/16
f 52/87/18 73/90/26 71/91/16 32/88/16
f 59/83/17 33/82/16 72/85/16 74/84/27
f 61/122/21 67/80/25 77/80/28 80/122/21
f 74/84/27 68/113/7 82/113/7 81/84/10
f 73/90/26 52/87/18 76/87/18 75/90/15
f 67/80/25 59/83/17 78/83/17 77/80/28
f 83/128/16 80/129/21 77/130/28 78/131/17
f 76/132/18 79/133/29 80/129/21 83/128/16
f 82/134/7 83/128/16 78/131/17 81/135/10
f 75/136/15 76/132/18 83/128/16 82/134/7
f 52/87/18 66/86/24 79/86/29 76/87/18
f 68/113/7 73/90/26 75/90/15 82/113/7
f 59/83/17 74/84/27 81/84/10 78/83/17
f 66/86/24 61/122/21 80/122/21 79/86/29
f 84/137/30 85/138/31 96/139/42 95/140/41 94/141/40 93/142/39 88/143/34 87/144/33
f 84/145/30 86/146/32 99/147/45 85/148/31
f 87/149/33 89/150/35 86/146/32 84/145/30
f 88/151/34 90/152/36 89/150/35 87/149/33
f 99/137/45 86/138/32 89/139/35 90/140/36 91/141/37 92/142/38 97/143/43 98/153/44
f 93/154/39 91/155/37 90/152/36 88/151/34
f 94/156/40 92/157/38 91/155/37 93/154/39
f 95/158/41 97/159/43 92/160/38 94/161/40
f 96/162/42 98/163/44 97/159/43 95/158/41
f 85/148/31 99/147/45 98/163/44 96/162/42
f 100/137/46 101/138/47 112/139/58 111/140/57 110/141/56 109/142/55 104/143/50 103/144/49
f 100/145/46 102/146/48 115/147/61 101/148/47
f 103/149/49 105/150/51 102/146/48 100/145/46
f 104/151/50 106/152/52 105/150/51 103/149/49
f 115/137/61 102/138/48 105/139/51 106/140/52 107/141/53 108/142/54 113/143/59 114/153/60
f 109/154/55 107/155/53 106/152/52 104/151/50
f 110/156/56 108/157/54 107/155/53 109/154/55
f 111/158/57 113/159/59 108/160/54 110/161/56
f 112/162/58 114/163/60 113/159/59 111/158/57
f 101/148/47 115/147/61 114/163/60 112/162/58
f 116/137/62 117/138/63 128/139/74 127/140/73 126/141/72 125/142/71 120/143/66 119/144/65
f 116/145/62 118/146/64 131/147/77 117/148/63
f 119/149/65 121/150/67 118/146/64 116/145/62
f 120/151/66 122/152/68 121/150/67 119/149/65
f 131/137/77 118/138/64 121/139/67 122/140/68 123/141/69 124/142/70 129/143/75 130/153/76
f 125/154/71 123/155/69 122/152/68 120/151/66
f 126/156/72 124/157/70 123/155/69 125/154/71
f 127/158/73 129/159/75 124/160/70 126/161/72
f 128/162/74 130/163/76 129/159/75 127/158/73
f 117/148/63 131/147/77 130/163/76 128/162/74
f 132/137/78 133/138/79 144/139/90 143/140/89 142/141/88 141/142/87 136/143/82 135/144/81
f 132/145/78 134/146/80 147/147/93 133/148/79
f 135/149/81 137/150/83 134/146/80 132/145/78
f 136/151/82 138/152/84 137/150/83 135/149/81
f 147/137/93 134/138/80 137/139/83 138/140/84 139/141/85 140/142/86 145/143/91 146/153/92
f 141/154/87 139/155/85 138/152/84 136/151/82
f 142/156/88 140/157/86 139/155/85 141/154/87
f 143/158/89 145/159/91 140/160/86 142/161/88
f 144/162/90 146/163/92 145/159/91 143/158/89
f 133/148/79 147/147/93 146/163/92 144/162/90
f 148/137/94 149/138/95 160/139/106 159/140/105 158/141/104 157/142/103 152/143/98 151/144/97
f 148/145/94 150/146/96 163/147/109 149/148/95
f 151/149/97 153/150/99 150/146/96 148/145/94
f 152/151/98 154/152/100 153/150/99 151/149/97
f 163/137/109 150/138/96 153/139/99 154/140/100 155/141/101 156/142/102 161/143/107 162/153/108
f 157/154/103 155/155/101 154/152/100 152/151/98
f 158/156/104 156/157/102 155/155/101 157/154/103
f 159/158/105 161/159/107 156/160/102 158/161/104
f 160/162/106 162/163/108 161/159/107 159/158/105
f 149/148/95 163/147/109 162/163/108 160/162/106
f 164/137/110 165/138/111 176/139/122 175/140/121 174/141/120 173/142/119 168/143/114 167/144/113
f 164/145/110 166/146/112 179/147/125 165/148/111
f 167/149/113 169/150/115 166/146/112 164/145/110
f 168/151/114 170/152/116 169/150/115 167/149/113
f 179/164/125 166/165/112 169/166/115 170/167/116 171/168/117 172/169/118 177/170/123 178/171/124
f 173/154/119 171/155/117 170/152/116 168/151/114
f 174/156/120 172/157/118 171/155/117 173/154/119
f 175/158/121 177/159/123 172/160/118 174/161/120
f 176/162/122 178/163/124 177/159/123 175/158/121
f 165/148/111 179/147/125 178/163/124 176/162/122
o Cube.007
v -0.094598 -0.114170 0.035212
v -0.094598 -0.093638 0.035212
v -0.087735 -0.114170 0.035212
v -0.094598 -0.114170 0.028978
v -0.094598 -0.093638 0.028978
v -0.087735 -0.114170 0.028978
v 0.071906 -0.114170 0.028978
v -0.087735 -0.093638 0.028978
v -0.087735 -0.031666 0.028978
v 0.071906 -0.093638 0.028978
v 0.077336 -0.093638 0.028978
v 0.071906 -0.031665 0.028978
v 0.077336 -0.031665 0.028978
v 0.071906 -0.019053 0.028978
v -0.087735 -0.019053 0.028978
v 0.077336 -0.019053 0.028978
v 0.071906 -0.019053 0.035212
v -0.087735 -0.019053 0.035212
v 0.077336 -0.019053 0.035212
v 0.071906 -0.031665 0.035212
v 0.077336 -0.031665 0.035212
v -0.087735 -0.031666 0.035212
v 0.071906 -0.093638 0.035212
v 0.077336 -0.093638 0.035212
v -0.087735 -0.093638 0.035212
v 0.071906 -0.114170 0.035212
v 0.077336 -0.114170 0.035212
v 0.077336 -0.114170 0.028978
v -0.094598 -0.031666 0.035212
v -0.094598 -0.019053 0.035212
v -0.094598 -0.031666 0.028978
v -0.094598 -0.019053 0.028978
vn -0.5774 -0.5774 0.5774
vn -0.7071 -0.0000 0.7071
vn -0.0000 -0.7071 0.7071
vn -0.5774 -0.5774 -0.5774
vn -0.7071 -0.0000 -0.7071
vn -0.0000 -0.7071 -0.7071
vn -0.0000 -0.0000 -1.0000
vn 0.7071 -0.0000 -0.7071
vn -0.0000 0.7071 -0.7071
vn 0.5774 0.5774 -0.5774
vn -0.0000 0.7071 0.7071
vn 0.5774 0.5774 0.5774
vn -0.0000 -0.0000 1.0000
vn 0.7071 -0.0000 0.7071
vn 0.5774 -0.5774 0.5774
vn 0.5774 -0.5774 -0.5774
vn -0.5774 0.5774 0.5774
vn -0.5774 0.5774 -0.5774
vt 0.230756 0.085180
vt 0.230309 0.107918
vt 0.236013 0.107923
vt 0.236438 0.085185
vt 0.368624 0.085309
vt 0.368695 0.108046
vt 0.234728 0.176555
vt 0.228959 0.176550
vt 0.368910 0.176674
vt 0.373474 0.176678
vt 0.373208 0.108050
vt 0.373120 0.085314
vt 0.373528 0.190645
vt 0.368954 0.190641
vt 0.234466 0.190522
vt 0.228685 0.190517
s 1
f 180/172/126 181/173/127 184/173/130 183/172/129
f 204/174/138 181/173/127 180/172/126 182/175/128
f 182/175/128 180/172/126 183/172/129 185/175/131
f 187/174/132 185/175/131 183/172/129 184/173/130
f 205/176/128 182/175/128 185/175/131 186/176/131
f 189/177/132 186/176/131 185/175/131 187/174/132
f 188/178/132 187/174/132 184/173/130 210/179/130
f 191/180/132 189/177/132 187/174/132 188/178/132
f 192/181/133 190/182/133 189/177/132 191/180/132
f 190/182/133 207/183/141 186/176/131 189/177/132
f 195/184/135 192/181/133 191/180/132 193/185/134
f 193/185/134 191/180/132 188/178/132 194/186/134
f 197/186/136 196/185/136 193/185/134 194/186/134
f 196/185/136 198/184/137 195/184/135 193/185/134
f 196/185/136 197/186/136 201/178/138 199/180/138
f 198/184/137 196/185/136 199/180/138 200/181/139
f 200/181/139 199/180/138 202/177/138 203/182/139
f 199/180/138 201/178/138 204/174/138 202/177/138
f 203/182/139 202/177/138 205/176/128 206/183/140
f 202/177/138 204/174/138 182/175/128 205/176/128
f 206/183/140 205/176/128 186/176/131 207/183/141
f 203/182/139 206/183/140 207/183/141 190/182/133
f 201/178/138 208/179/127 181/173/127 204/174/138
f 200/181/139 203/182/139 190/182/133 192/181/133
f 197/186/136 209/187/142 208/179/127 201/178/138
f 181/173/127 208/179/127 210/179/130 184/173/130
f 208/179/127 209/187/142 211/187/143 210/179/130
f 194/186/134 188/178/132 210/179/130 211/187/143
f 209/187/142 197/186/136 194/186/134 211/187/143
f 198/184/137 200/181/139 192/181/133 195/184/135
