# Made in Blockbench 5.0.4
mtllib jewelcase.mtl

o CLYoEc_0
v 0.5 0.8 0.0015873015873015886
v 0.5 0.8 -0.06249999999999999
v 0.5 0.006349206349206382 0.0015873015873015886
v 0.5 0.006349206349206382 -0.06249999999999999
v -0.5 0.8 -0.06249999999999999
v -0.5 0.8 0.0015873015873015886
v -0.5 0.006349206349206382 -0.06249999999999999
v -0.5 0.006349206349206382 0.0015873015873015886
vt 1 1
vt 0 1
vt 0 0
vt 1 0
vt 0.9984126984126984 1
vt 1 1
vt 1 0
vt 0.9984126984126984 0
vt 0 1
vt 1 1
vt 1 0
vt 0 0
vt 0 1
vt 0.0015873015873015873 1
vt 0.0015873015873015873 0
vt 0 0
vt 0 1
vt 1 1
vt 1 0.998
vt 0 0.998
vt 0 0.0020000000000000018
vt 1 0.0020000000000000018
vt 1 0
vt 0 0
vn 0 0 -1
vn 1 0 0
vn 0 0 1
vn -1 0 0
vn 0 1 0
vn 0 -1 0
usemtl m_6614cd8f-205e-2fac-4810-c8fc0ba219b3
f 4/4/1 7/3/1 5/2/1 2/1/1
f 3/8/2 4/7/2 2/6/2 1/5/2
f 8/12/3 3/11/3 1/10/3 6/9/3
f 7/16/4 8/15/4 6/14/4 5/13/4
f 6/20/5 1/19/5 2/18/5 5/17/5
f 7/24/6 4/23/6 3/22/6 8/21/6