<?xml version="1.0" encoding="utf-8"?>
<COLLADA version="1.5.0" xmlns="http://www.collada.org/2008/03/COLLADASchema">
	<asset>
		<contributor>
			<authoring_tool>BrawlCrate</authoring_tool>
		</contributor>
		<created>2026-07-18T01:31:21Z</created>
		<modified>2026-07-18T01:31:21Z</modified>
		<unit meter="0.01" name="centimeter" />
		<up_axis>Y_UP</up_axis>
	</asset>
	<library_images>
		<image id="rim_dark-image" name="rim_dark">
			<init_from>
				<ref>rim_dark.png</ref>
			</init_from>
		</image>
		<image id="son_darklight-image" name="son_darklight">
			<init_from>
				<ref>son_darklight.png</ref>
			</init_from>
		</image>
		<image id="ter_body_S-image" name="ter_body_S">
			<init_from>
				<ref>ter_body_S.png</ref>
			</init_from>
		</image>
		<image id="ter_face_S-image" name="ter_face_S">
			<init_from>
				<ref>ter_face_S.png</ref>
			</init_from>
		</image>
	</library_images>
	<library_materials>
		<material id="body_S_mat">
			<instance_effect url="#body_S_mat-fx" />
		</material>
		<material id="face_S_mat">
			<instance_effect url="#face_S_mat-fx" />
		</material>
	</library_materials>
	<library_effects>
		<effect id="body_S_mat-fx" name="body_S_mat">
			<profile_COMMON>
				<newparam sid="ter_body_S-surface">
					<surface type="2D">
						<init_from>
							<ref>ter_body_S-image</ref>
						</init_from>
					</surface>
				</newparam>
				<newparam sid="ter_body_S-sampler">
					<sampler2D>
						<source>ter_body_S-surface</source>
						<instance_image url="#ter_body_S-image" />
						<wrap_s>CLAMP</wrap_s>
						<wrap_t>CLAMP</wrap_t>
						<minfilter>LINEAR_MIPMAP_LINEAR</minfilter>
						<magfilter>LINEAR</magfilter>
					</sampler2D>
				</newparam>
				<newparam sid="rim_dark-surface">
					<surface type="2D">
						<init_from>
							<ref>rim_dark-image</ref>
						</init_from>
					</surface>
				</newparam>
				<newparam sid="rim_dark-sampler">
					<sampler2D>
						<source>rim_dark-surface</source>
						<instance_image url="#rim_dark-image" />
						<wrap_s>CLAMP</wrap_s>
						<wrap_t>CLAMP</wrap_t>
						<minfilter>LINEAR_MIPMAP_LINEAR</minfilter>
						<magfilter>LINEAR</magfilter>
					</sampler2D>
				</newparam>
				<newparam sid="son_darklight-surface">
					<surface type="2D">
						<init_from>
							<ref>son_darklight-image</ref>
						</init_from>
					</surface>
				</newparam>
				<newparam sid="son_darklight-sampler">
					<sampler2D>
						<source>son_darklight-surface</source>
						<instance_image url="#son_darklight-image" />
						<wrap_s>CLAMP</wrap_s>
						<wrap_t>CLAMP</wrap_t>
						<minfilter>LINEAR_MIPMAP_LINEAR</minfilter>
						<magfilter>LINEAR</magfilter>
					</sampler2D>
				</newparam>
				<technique sid="COMMON">
					<phong>
						<diffuse>
							<texture texture="ter_body_S-sampler" texcoord="TEXCOORD0" />
						</diffuse>
					</phong>
				</technique>
			</profile_COMMON>
		</effect>
		<effect id="face_S_mat-fx" name="face_S_mat">
			<profile_COMMON>
				<newparam sid="ter_face_S-surface">
					<surface type="2D">
						<init_from>
							<ref>ter_face_S-image</ref>
						</init_from>
					</surface>
				</newparam>
				<newparam sid="ter_face_S-sampler">
					<sampler2D>
						<source>ter_face_S-surface</source>
						<instance_image url="#ter_face_S-image" />
						<wrap_s>WRAP</wrap_s>
						<wrap_t>CLAMP</wrap_t>
						<minfilter>LINEAR_MIPMAP_LINEAR</minfilter>
						<magfilter>LINEAR</magfilter>
					</sampler2D>
				</newparam>
				<newparam sid="rim_dark-surface">
					<surface type="2D">
						<init_from>
							<ref>rim_dark-image</ref>
						</init_from>
					</surface>
				</newparam>
				<newparam sid="rim_dark-sampler">
					<sampler2D>
						<source>rim_dark-surface</source>
						<instance_image url="#rim_dark-image" />
						<wrap_s>CLAMP</wrap_s>
						<wrap_t>CLAMP</wrap_t>
						<minfilter>LINEAR_MIPMAP_LINEAR</minfilter>
						<magfilter>LINEAR</magfilter>
					</sampler2D>
				</newparam>
				<newparam sid="son_darklight-surface">
					<surface type="2D">
						<init_from>
							<ref>son_darklight-image</ref>
						</init_from>
					</surface>
				</newparam>
				<newparam sid="son_darklight-sampler">
					<sampler2D>
						<source>son_darklight-surface</source>
						<instance_image url="#son_darklight-image" />
						<wrap_s>CLAMP</wrap_s>
						<wrap_t>CLAMP</wrap_t>
						<minfilter>LINEAR_MIPMAP_LINEAR</minfilter>
						<magfilter>LINEAR</magfilter>
					</sampler2D>
				</newparam>
				<technique sid="COMMON">
					<phong>
						<diffuse>
							<texture texture="ter_face_S-sampler" texcoord="TEXCOORD0" />
						</diffuse>
					</phong>
				</technique>
			</profile_COMMON>
		</effect>
	</library_effects>
	<library_geometries>
		<geometry id="polygon0" name="polygon0">
			<mesh>
				<source id="polygon0_Positions">
					<float_array id="polygon0_PosArr" count="45">-7.115029 8.315536 5.360137 -3.800416 9.773158 6.386916 -3.800416 5.307195 10.40459 0 5.485911 10.88872 0 -0.6683242 12.29291 3.800417 5.307195 10.40459 3.800417 -0.1903931 11.75665 7.115029 0.04425488 9.949625 0 10.26013 6.785096 3.800417 9.773155 6.386916 7.115029 8.315536 5.360137 -3.800416 -0.1903931 11.75665 -7.115029 0.04425488 9.949625 -7.115029 4.706265 8.821695 7.115029 4.706265 8.821695</float_array>
					<technique_common>
						<accessor source="#polygon0_PosArr" count="15" stride="3">
							<param name="X" type="float" />
							<param name="Y" type="float" />
							<param name="Z" type="float" />
						</accessor>
					</technique_common>
				</source>
				<source id="polygon0_Normals">
					<float_array id="polygon0_NormArr" count="45">-0.6115723 0.6696777 0.4212646 -0.3125 0.800415 0.5115967 -0.3372192 0.3981323 0.8530884 0 0.4584961 0.8887329 0 -0.06695558 0.9977417 0.3372192 0.3981323 0.8530884 0.3311768 -0.1374512 0.9334717 0.5993652 -0.05035402 0.7988892 0 0.8396606 0.5431519 0.3125 0.800415 0.5115967 0.6115723 0.6696777 0.4212646 -0.3311768 -0.1374512 0.9334717 -0.5993652 -0.05035402 0.7988892 -0.6143188 0.3746338 0.694458 0.6143188 0.3746338 0.694458</float_array>
					<technique_common>
						<accessor source="#polygon0_NormArr" count="15" stride="3">
							<param name="X" type="float" />
							<param name="Y" type="float" />
							<param name="Z" type="float" />
						</accessor>
					</technique_common>
				</source>
				<source id="polygon0_UVs0">
					<float_array id="polygon0_UVArr0" count="18">2.950012 0.7320557 2.559509 0.8360596 2.559509 0.619873 2.018372 0.6177979 2.018372 -0.06311035 2.559509 -0.02905273 2.950012 -0.0123291 2.018372 0.855957 2.950012 0.5770264</float_array>
					<technique_common>
						<accessor source="#polygon0_UVArr0" count="9" stride="2">
							<param name="S" type="float" />
							<param name="T" type="float" />
						</accessor>
					</technique_common>
				</source>
				<vertices id="polygon0_Vertices">
					<input semantic="POSITION" source="#polygon0_Positions" />
				</vertices>
				<triangles material="face_S_mat" count="16">
					<input semantic="VERTEX" source="#polygon0_Vertices" offset="0" />
					<input semantic="NORMAL" source="#polygon0_Normals" offset="1" />
					<input semantic="TEXCOORD" source="#polygon0_UVs0" set="0" offset="2" />
					<p>2 2 2 1 1 1 0 0 0 3 3 3 1 1 1 2 2 2 4 4 4 3 3 3 2 2 2 5 5 2 3 3 3 4 4 4 6 6 5 5 5 2 4 4 4 7 7 6 5 5 2 6 6 5 3 3 3 8 8 7 1 1 1 9 9 1 8 8 7 3 3 3 5 5 2 9 9 1 3 3 3 10 10 0 9 9 1 5 5 2 2 2 2 12 12 6 11 11 5 13 13 8 12 12 6 2 2 2 0 0 0 13 13 8 2 2 2 14 14 8 5 5 2 7 7 6 10 10 0 5 5 2 14 14 8 11 11 5 4 4 4 2 2 2</p>
				</triangles>
			</mesh>
		</geometry>
		<geometry id="polygon1" name="polygon1">
			<mesh>
				<source id="polygon1_Positions">
					<float_array id="polygon1_PosArr" count="687">0 7.604201 -10.3448 -4.723274 6.094929 -10.3448 -3.080395 3.03895 -13.34757 -4.928046 0.6929503 -13.34757 -3.262153 -0.06749064 -14.95512 -3.287517 -2.117733 -14.95512 -1.835994 -0.3061946 -16.4243 -1.800924 -2.045855 -16.4243 -0.542725 -0.8459975 -19.758 0 -1.502115 -19.758 0 -0.8014175 -20.1373 0.542726 -0.8459985 -19.758 0 -0.1898835 -19.758 1.835994 -0.3061946 -16.4243 0 1.107669 -16.4243 2.035234 1.628087 -14.95512 0 2.200631 -14.95512 0 3.963735 -13.34757 -2.035234 1.628087 -14.95512 -7.642416 1.756525 -10.3448 -7.642416 -3.708519 -10.3448 -4.928045 -2.8325 -13.34757 -2.86911 -5.275319 -13.34757 -1.994883 -3.555574 -14.95512 0 -4.02075 -14.95512 0 -2.830401 -16.4243 1.994883 -3.555574 -14.95512 1.800925 -2.045856 -16.4243 3.287518 -2.117733 -14.95512 3.262154 -0.06748964 -14.95512 3.080395 3.03895 -13.34757 4.723274 6.094929 -10.3448 4.928046 0.6929503 -13.34757 7.642416 1.756525 -10.3448 4.928046 -2.8325 -13.34757 7.642416 -3.708519 -10.3448 2.869111 -5.275319 -13.34757 4.723274 -7.418127 -10.3448 0 -5.992898 -13.34757 0 -8.769972 -10.3448 -4.723274 -7.418127 -10.3448 -9.593519 6.069989 3.894011 -11.0623 3.331953 2.23383 -9.593519 7.27308 8.849857E-08 -11.09675 3.148766 -2.087269 -8.920241 6.200325 -5.7836 -10.23241 2.829004 -5.673718 -9.208071 -0.8163758 -8.304615 -9.89253 -4.115945 -6.339773 -8.676735 -6.879827 -5.673727 -10.66304 -4.378466 -3.221799 -9.211575 -7.524663 -9.155983E-08 -10.77832 -4.145955 1.878725 -8.972759 -7.029881 3.494889 -9.649128 -4.172979 5.848243 6.480934 8.733616 -6.094022 8.920242 6.200327 -5.7836 10.23241 2.829004 -5.673718 9.208071 -0.8163748 -8.304615 11.12004 -0.4406059 -4.205536 9.89253 -4.115945 -6.339773 10.66304 -4.378466 -3.2218 8.676735 -6.879827 -5.673727 9.211575 -7.524663 -9.155983E-08 9.593519 0.04425491 7.228828 9.593519 3.285672 6.361632 11.0623 0.04425501 3.800419 11.0623 3.331953 2.23383 11.87484 -0.002947866 -3.586953E-11 11.09675 3.148766 -2.087269 -9.593519 3.285672 6.361632 -11.0623 0.04425501 3.800419 -11.87484 -0.002947866 -3.586953E-11 10.77832 -4.145955 1.878725 9.649128 -4.172979 5.848243 -11.12004 -0.4406059 -4.205536 -6.480934 8.733616 -6.094022 -3.407231 10.18452 -6.258737 0 10.75935 -6.31949 3.407231 10.18452 -6.258738 6.094793 -9.539474 -5.727467 3.080868 -10.89316 -5.709936 -9.593519 0.04425491 7.228828 -6.094793 -9.539474 -5.727467 -3.080867 -10.89316 -5.709936 0 -11.4025 -5.721826 9.593519 6.069989 3.894011 9.593519 7.27308 8.849857E-08 8.972759 -7.029881 3.494889 7.132734 -7.62055 6.23742 7.226371 -5.645877 7.702707 5.414945 -9.059487 6.293232 3.465294 -9.137398 7.329149 3.585817 -9.888995 6.35792 2.953247E-07 -10.5893 6.396777 3.608104 -10.61756 4.777092 1.54976E-07 -11.19005 4.963103 3.672788 -11.58628 -1.409814E-07 0 -12.1854 -1.482716E-07 -3.672787 -11.58628 -1.409814E-07 -3.608103 -10.61756 4.777092 -3.585817 -9.888995 6.35792 -3.465294 -9.137398 7.329149 -5.414945 -9.059487 6.293232 -7.226371 -5.645877 7.702706 -7.132734 -7.62055 6.23742 -7.039097 -8.837202 4.402147 -6.822418 -10.04724 -1.222545E-07 7.039097 -8.837202 4.402147 6.822419 -10.04724 -1.222545E-07 -2.721901 -7.831232 7.748648 -1.123469 -9.055643 7.445714 2.80619E-07 -9.985026 7.318544 -6.247054 -5.193904 2.943134 -4.010966 -5.73514 8.398289 -4.917805 -0.9953071 10.24437 4.917805 -0.9953081 10.24437 4.010966 -5.73514 8.398291 6.247054 -5.193904 2.943134 2.721902 -7.831232 7.748648 1.123469 -9.055643 7.445714 -5.621342 -0.6397561 10.65705 -5.10146 -6.12942 8.363827 5.621343 -0.6397551 10.65705 5.10146 -6.12942 8.363827 1.184702 -5.359588 0.9394813 2.363504 -5.594198 1.832182 1.184701 -4.863666 1.119982 1.972384 -4.630754 2.378994 0.7889541 -4.16929 2.628499 1.050801 -4.374278 4.422492 1.193671E-07 -4.40141 2.508279 1.586596E-07 -4.748865 4.605338 -0.7889529 -4.16929 2.628499 -1.0508 -4.374278 4.422492 -1.972384 -4.630754 2.378994 -2.283931 -5.041997 4.089921 -2.363504 -5.594198 1.832182 -2.86438 -6.22192 3.464918 -1.434702 -7.097745 3.040236 -1.485313 -7.802717 4.232452 1.485313 -7.802717 4.232452 1.354166 -8.422213 5.372091 3.037156 -6.933052 4.685091 2.702441 -7.679132 5.833397 1.974076 -6.194219 6.6185 1.354166 -7.459217 7.35359 2.275195E-07 -6.84071 7.650948 2.355316E-07 -8.205323 7.529388 -1.354166 -7.459217 7.35359 -1.354166 -8.330699 6.771525 -2.702441 -7.679132 5.833397 -1.354166 -8.422213 5.372091 -3.037155 -6.933052 4.685091 -1.184701 -4.863666 1.119982 -1.184701 -5.359588 0.9394813 -1.177586 -6.228813 1.50406 1.177586 -6.228813 1.50406 1.434702 -7.097745 3.040236 2.86438 -6.22192 3.464918 2.283932 -5.041997 4.089921 2.266822 -5.487617 5.440303 1.799299E-07 -4.805074 5.796519 -3.800416 11.74074 1.428609E-07 0 12.34267 1.501851E-07 0 10.26013 6.785096 3.800417 11.74074 1.428609E-07 3.800417 9.773155 6.386916 7.115029 9.993891 1.216053E-07 7.115029 8.315536 5.360137 -4.698215 0.2561989 10.02504 -3.457754 -3.814128 9.512881 -2.828918 1.276268 8.381931 -2.898795 -3.814128 9.417048 -0.951846 0.2342129 10.15867 -2.847997 -3.833302 9.908322 -3.210306 -0.5214631 11.62408 -3.404528 -3.833302 9.986034 -2.637339 0.2246959 10.23347 -1.378395 -3.109703 9.562065 -0.837255 1.255278 8.5312 -0.610781 -3.109703 9.562065 0.645955 0.2084789 10.11267 -0.683532 -3.130373 10.18949 -0.915214 0.2295339 11.86734 -1.303648 -3.130373 10.18948 0.837256 1.255278 8.5312 1.378395 -3.109703 9.562065 2.63734 0.2246959 10.23347 1.303649 -3.130373 10.18948 0.915214 0.2295339 11.86734 0.683532 -3.130373 10.18949 -0.645954 0.2084789 10.11267 0.610781 -3.109703 9.562065 2.828918 1.276268 8.381931 3.457754 -3.814128 9.512881 4.698215 0.2561989 10.02504 3.404529 -3.833302 9.986034 3.210306 -0.5214631 11.62408 2.847997 -3.833302 9.908322 0.951847 0.2342129 10.15867 2.898795 -3.814128 9.417048 2.062123E-07 -5.618653 6.952533 -2.266822 -5.487617 5.440302 -1.974076 -6.194219 6.6185 2.209155E-07 -8.612938 6.521434 1.354166 -8.330699 6.771525 -7.115029 9.993891 1.216053E-07 -7.115029 8.315536 5.360137 -3.800416 9.773158 6.386916 7.115029 0.04425488 9.949625 7.115029 4.706265 8.821695 -7.115029 0.04425488 9.949625 -7.115029 4.706265 8.821695 -3.101391 2.193008 6.124218 9.705988E-08 -4.988337 0.7642984 3.101392 2.193008 6.124218 3.604043 -1.282024 11.27229 -3.604042 -1.282023 11.27229 -3.800416 -0.1903931 11.75665 -1.143586 -1.691928 11.88472 9.787482E-08 -4.721638 1.14463 -3.148192 -4.098741 9.637889 -0.994588 -3.455913 9.833652 3.800417 -0.1903931 11.75665 0.994588 -3.455913 9.833652 3.148193 -4.098741 9.637889 1.143587 -1.691928 11.88472 0 -0.6683242 12.29291</float_array>
					<technique_common>
						<accessor source="#polygon1_PosArr" count="229" stride="3">
							<param name="X" type="float" />
							<param name="Y" type="float" />
							<param name="Z" type="float" />
						</accessor>
					</technique_common>
				</source>
				<source id="polygon1_Normals">
					<float_array id="polygon1_NormArr" count="687">0 0.7266846 -0.6869507 -0.4539185 0.5900269 -0.6676636 -0.3869019 0.5424805 -0.7456665 -0.6560669 0.2121582 -0.7242432 -0.6571655 0.2213745 -0.72052 -0.6647339 -0.2007446 -0.7196045 -0.7214966 0.3543701 -0.5948486 -0.6459351 -0.4953613 -0.5808716 -0.7833252 0.009094253 -0.621582 0 -0.7612305 -0.6484985 0 0.02160647 -0.9997559 0.7833252 0.009094253 -0.621582 0 0.7915039 -0.611145 0.7214966 0.3543701 -0.5948486 0 0.7860718 -0.6181641 0.4041138 0.5800171 -0.7072754 0 0.7434692 -0.6687622 0 0.6595459 -0.7516479 -0.4041138 0.5800171 -0.7072754 -0.7564697 0.2172852 -0.6168823 -0.7600098 -0.2693481 -0.5914917 -0.6520386 -0.2335815 -0.7213135 -0.3692017 -0.5808105 -0.7255249 -0.3797607 -0.5900879 -0.7124023 0 -0.6830444 -0.7304077 0 -0.8410645 -0.5409546 0.3797607 -0.5900879 -0.7124023 0.6459351 -0.4953613 -0.5808716 0.6647339 -0.2007446 -0.7196045 0.6571655 0.2213745 -0.72052 0.3869019 0.5424805 -0.7456665 0.4539185 0.5900269 -0.6676636 0.6560669 0.2121582 -0.7242432 0.7564697 0.2172852 -0.6168823 0.6520386 -0.2335815 -0.7213135 0.7600098 -0.2693481 -0.5914917 0.3692017 -0.5808105 -0.7255249 0.4608765 -0.6801758 -0.5700684 0 -0.6904907 -0.7233276 0 -0.8202515 -0.5719604 -0.4608765 -0.6801758 -0.5700684 -0.8347778 0.4649048 0.2949829 -0.9512329 0.2601318 0.1659546 -0.8585815 0.5124512 -0.01348876 -0.9510498 0.2717896 -0.1468506 -0.789978 0.4614868 -0.4037476 -0.8983765 0.1962891 -0.3929443 -0.869812 -0.0001830935 -0.4934082 -0.8874512 -0.2529297 -0.3853149 -0.7628174 -0.5510254 -0.3382568 -0.932312 -0.3346558 -0.137207 -0.8232422 -0.567688 -0.002563484 -0.9355469 -0.3236084 0.1417236 -0.7997437 -0.5414429 0.2593994 -0.8237915 -0.3140259 0.4719849 0.5565186 0.7168579 -0.4199829 0.789978 0.4614868 -0.4037476 0.8983765 0.1962891 -0.3929443 0.869812 -0.0001830935 -0.4934082 0.9585571 -0.01104735 -0.284668 0.8874512 -0.2529297 -0.3853149 0.932312 -0.3346558 -0.137207 0.7628174 -0.5510254 -0.3382568 0.8232422 -0.567688 -0.002563484 0.8425903 -0.0131836 0.5383911 0.8602905 0.2403564 0.449646 0.9526367 -0.01721191 0.3037109 0.9512329 0.2601318 0.1659546 0.9997559 -0.02062987 0.00970459 0.9510498 0.2717896 -0.1468506 -0.8602905 0.2403564 0.449646 -0.9526367 -0.01721191 0.3037109 -0.9997559 -0.02062987 0.00970459 0.9355469 -0.3236084 0.1417236 0.8237915 -0.3140259 0.4719849 -0.9585571 -0.01104735 -0.284668 -0.5565186 0.7168579 -0.4199829 -0.276123 0.8322144 -0.4807739 0 0.8972168 -0.4415894 0.276123 0.8322144 -0.4807739 0.5496216 -0.7721558 -0.3188477 0.2697754 -0.8919067 -0.362915 -0.8425903 -0.0131836 0.5383911 -0.5496216 -0.7721558 -0.3188477 -0.2697754 -0.8919067 -0.362915 0 -0.9468384 -0.3216553 0.8347778 0.4649048 0.2949829 0.8585815 0.5124512 -0.01348876 0.7997437 -0.5414429 0.2593994 0.6599731 -0.5647756 0.4955597 0.5089722 -0.4271851 0.7473145 0.458252 -0.7069309 0.5387739 0.1727295 -0.4704088 0.8653612 0.2752686 -0.8222553 0.4981996 2.107689E-08 -0.8660812 0.5000308 0.3325806 -0.8936432 0.3014009 1.159533E-08 -0.9529102 0.3034761 0.305603 -0.9516602 0.03033446 0 -0.9995117 0.03167723 -0.305603 -0.9516602 0.03033446 -0.3325806 -0.8936432 0.3014009 -0.2752685 -0.8222553 0.4981996 -0.1727295 -0.4704088 0.8653612 -0.458252 -0.7069309 0.5387739 -0.5089722 -0.4271851 0.7473145 -0.6599731 -0.5647757 0.4955597 -0.5986938 -0.7461167 0.2914518 -0.5917358 -0.8059692 0.01489257 0.5986328 -0.7461167 0.2914518 0.5917358 -0.8059692 0.01489257 0.5958862 0.3420912 0.7265237 0.1542358 0.4213516 0.8937929 1.104721E-08 -0.4539464 0.8911071 0.8978271 0.3913574 0.2019043 0.5792847 -0.09631941 0.8094981 0.6940918 -0.7133789 0.09680175 -0.6940918 -0.7133789 0.09680175 -0.5792847 -0.09631944 0.8094981 -0.8978271 0.3913574 0.2019043 -0.5959473 0.3420911 0.7265237 -0.1542359 0.4213516 0.8937929 -0.2563477 -0.4558716 0.852356 -0.1365967 -0.3922971 0.909724 0.2563477 -0.4558716 0.852356 0.1365967 -0.3922971 0.909724 0.4042969 -0.2847012 -0.86918 0.7804565 0.02057887 -0.6248866 0.4466553 0.7145771 -0.5384368 0.6124268 0.7566843 -0.2286837 0.05792235 0.9863621 -0.1540005 0.1401978 0.9627009 0.2313396 -8.055554E-09 0.9993778 -0.03595407 -5.556475E-09 0.9944959 0.1047308 -0.05792237 0.9863621 -0.1540005 -0.1401978 0.9627009 0.2313396 -0.6124268 0.7566843 -0.2286836 -0.7285156 0.6764413 0.1079731 -0.7804565 0.02057886 -0.6248866 -0.940979 -0.1815855 -0.2856114 -0.2828979 -0.8175281 -0.5016461 -0.2824707 -0.8369676 -0.4689967 0.2824707 -0.8369676 -0.4689967 0.2527466 -0.949934 -0.1836204 0.9570923 -0.2729866 -0.09724215 0.8207397 -0.4521193 0.3492308 0.5625 0.4046577 0.7211066 0.5007324 -0.1453326 0.8533118 1.495488E-08 0.2613648 0.9652243 1.855747E-08 -0.5826457 0.8127567 -0.5007324 -0.1453326 0.8533118 -0.3979492 -0.8172505 0.4168519 -0.8207397 -0.4521193 0.3492309 -0.2527466 -0.949934 -0.1836203 -0.9570923 -0.2729866 -0.09724212 -0.4466553 0.7145771 -0.5384368 -0.4042969 -0.2847012 -0.86918 -0.2663574 -0.6908829 -0.6720695 0.2663574 -0.6908829 -0.6720696 0.2828979 -0.8175281 -0.5016461 0.940979 -0.1815854 -0.2856114 0.7285156 0.6764413 0.107973 0.5874634 0.6867396 0.4283418 1.050899E-10 0.9184606 0.3958666 -0.3148804 0.9489136 0.02014161 0 0.9996948 0.02459718 0 0.8396606 0.5431519 0.3148804 0.9489136 0.02014161 0.3125 0.800415 0.5115967 0.6090698 0.7930908 0.006896982 0.6115723 0.6696777 0.4212646 -0.9637451 -0.2645874 -0.03521729 -0.6444092 -0.4608765 -0.6101685 -0.06469727 -0.1774292 -0.9819946 0.4918213 -0.5082397 -0.7069702 0.9194946 -0.3891602 -0.05529786 0.5847778 -0.638916 0.4998169 -0.02209473 -0.4151611 0.9094849 -0.5457764 -0.6184692 0.5653076 -0.9497681 -0.312439 0.01965332 -0.5895996 -0.527832 -0.6113281 0.008728027 -0.1854248 -0.982605 0.5921631 -0.5349121 -0.6026001 0.9486694 -0.3162842 0.00524902 0.5578613 -0.6079712 0.5648804 0.02276611 -0.4049072 0.9140625 -0.5437012 -0.6077881 0.5788574 -0.008728027 -0.1854248 -0.982605 0.5895996 -0.527832 -0.6113281 0.9497681 -0.312439 0.01965332 0.5437012 -0.6077881 0.5788574 -0.02276611 -0.4049072 0.9140625 -0.5578613 -0.6079712 0.5648804 -0.9486694 -0.3162842 0.00524902 -0.5921631 -0.5349121 -0.6026001 0.06469727 -0.1774292 -0.9819946 0.6444092 -0.4608765 -0.6101685 0.9637451 -0.2645874 -0.03521729 0.5457764 -0.6184692 0.5653076 0.02209473 -0.4151611 0.9094849 -0.5847778 -0.638916 0.4998169 -0.9194946 -0.3891602 -0.05529786 -0.4918213 -0.5082397 -0.7069702 6.656681E-09 0.7256244 0.688265 -0.5874634 0.6867396 0.4283418 -0.5625 0.4046577 0.7211066 9.914158E-09 -0.9891904 0.1464491 0.3979492 -0.8172505 0.4168519 -0.6090698 0.7930908 0.006896982 -0.6115723 0.6696777 0.4212646 -0.3125 0.800415 0.5115967 0.5993652 -0.05035402 0.7988892 0.6143188 0.3746338 0.694458 -0.5993652 -0.05035402 0.7988892 -0.6143188 0.3746338 0.694458 0.3415527 -0.9397583 0.01239013 -5.601546E-09 0.2301759 0.9731571 -0.3415527 -0.9397583 0.01239013 0.2182617 -0.9517212 0.2158203 -0.2182617 -0.9517212 0.2158203 -0.3311768 -0.1374512 0.9334717 -0.1412354 -0.8441162 0.5171509 -1.25604E-08 0.949228 -0.3145757 -0.01171875 -0.9957886 -0.09069826 -0.0003051758 -1 0.001098621 0.3311768 -0.1374512 0.9334717 0.0003051758 -1 0.001098621 0.01171875 -0.9957886 -0.09069826 0.1412354 -0.8441162 0.5171509 0 -0.06695558 0.9977417</float_array>
					<technique_common>
						<accessor source="#polygon1_NormArr" count="229" stride="3">
							<param name="X" type="float" />
							<param name="Y" type="float" />
							<param name="Z" type="float" />
						</accessor>
					</technique_common>
				</source>
				<source id="polygon1_UVs0">
					<float_array id="polygon1_UVArr0" count="388">0.3094482 0.5751953 0.3068237 0.5737305 0.3077393 0.5708008 0.3067017 0.5685425 0.3076172 0.5678101 0.3076172 0.5657959 0.3084106 0.5675659 0.3084106 0.565918 0.3091431 0.5670166 0.3094482 0.5664063 0.3094482 0.5670776 0.3097534 0.5670166 0.3094482 0.567688 0.3104858 0.5675659 0.3094482 0.5689087 0.3106079 0.569458 0.3094482 0.5700073 0.3094482 0.5716553 0.3082886 0.569458 0.3051758 0.5695801 0.3051758 0.56427 0.3067017 0.5651245 0.3078613 0.5628052 0.3083496 0.5644531 0.3094482 0.5639648 0.3094482 0.5651245 0.3105469 0.5644531 0.3104858 0.565918 0.3112793 0.5657959 0.3112793 0.5678101 0.3111572 0.5708008 0.3121338 0.5737305 0.3121948 0.5685425 0.3137817 0.5695801 0.3121948 0.5651245 0.3137817 0.56427 0.3110962 0.5628052 0.3121338 0.56073 0.3094482 0.5620728 0.3094482 0.5593872 0.3068237 0.56073 0.3040771 0.5737305 0.3032227 0.5710449 0.3040771 0.5748901 0.3032227 0.5709229 0.3044434 0.5738525 0.3037109 0.5705566 0.3042603 0.5670776 0.303894 0.5639038 0.3045654 0.5612183 0.3034668 0.5636597 0.3042603 0.5606079 0.3034058 0.5638428 0.3043823 0.5610962 0.3040161 0.5638428 0.3131104 0.5762939 0.3144531 0.5738525 0.3151855 0.5705566 0.3146362 0.5670776 0.3157349 0.5674438 0.3150024 0.5639038 0.3154297 0.5636597 0.3143311 0.5612183 0.3146362 0.5606079 0.3148193 0.5679321 0.3148193 0.5710449 0.3156738 0.5679321 0.3156738 0.5710449 0.3161621 0.5678711 0.3156738 0.5709229 0.3040771 0.5710449 0.3032227 0.5679321 0.3027954 0.5678711 0.3154907 0.5638428 0.3148804 0.5638428 0.3032227 0.5674438 0.3057861 0.5762939 0.3075562 0.5776978 0.3094482 0.5782471 0.3113403 0.5776978 0.3128662 0.5586548 0.3111572 0.557373 0.3040771 0.5679321 0.3060303 0.5586548 0.3077393 0.557373 0.3094482 0.5568848 0.3148193 0.5737305 0.3148193 0.5748901 0.3145142 0.5610962 0.3134766 0.5604858 0.3135376 0.562439 0.3125 0.5591431 0.3114014 0.559082 0.3114624 0.5583496 0.3094482 0.5576782 0.3114624 0.5576172 0.3094482 0.5570679 0.3115234 0.5567017 0.3094482 0.5560913 0.307373 0.5567017 0.3074341 0.5576172 0.3074341 0.5583496 0.3074951 0.559082 0.3063965 0.5591431 0.3053589 0.562439 0.3054199 0.5604858 0.305481 0.5593262 0.305603 0.5581665 0.3134155 0.5593262 0.3132935 0.5581665 0.3079224 0.5603027 0.3088379 0.5591431 0.3094482 0.5582275 0.005126953 0.506958 0.1272583 0.5440674 0.1347656 0.7519531 0.1884766 0.6921997 0.2064819 0.9400024 0.3151245 0.87677 0.2859497 0.7919922 0.3193359 0.7297974 0.2817383 0.6991577 0.2855835 0.5983276 0.3065796 0.5619507 0.3071899 0.5623169 0.3123169 0.5619507 0.3117065 0.5623169 0.3109741 0.5603027 0.3100586 0.5591431 0.1287231 0.4934082 0.1287231 0.4028931 0.1748657 0.4927368 0.1721191 0.4039307 0.2102051 0.4055176 0.2085571 0.3146973 0.230835 0.4087524 0.230835 0.3151855 0.1716919 0.3027344 0.1282959 0.3042603 0.03399658 0.3117065 0.03637695 0.2445679 0.03533936 0.1572266 0.1281128 0.2297974 0.1282349 0.1567383 0.1690063 0.1638184 0.1707764 0.06622314 0.230835 0.09899902 0.230835 0.002380371 0.1283569 0.06341553 0.03302002 0.4101563 0.1702881 0.2330933 0.230835 0.2446899 0.307312 0.5791626 0.3094482 0.5797729 0.3094482 0.5777588 0.3115845 0.5791626 0.3115845 0.5772705 0.3134766 0.5775146 0.3134766 0.5758667 0.3218994 0.9633179 0.3334961 0.6032104 0.3590698 1.1297 0.3356323 0.6032104 0.3188477 1.021912 0.3245239 0.6011963 0.2857056 0.9437866 0.3227539 0.6011963 0.3171387 1.020935 0.3323364 0.6760254 0.3557129 1.127563 0.3198853 1.019287 0.3181763 0.6738892 0.2801514 1.021423 0.230835 0.1688843 0.04553223 0.05688477 0.305481 0.5775146 0.305481 0.5758667 0.307312 0.5772705 0.3134766 0.5679321 0.3134766 0.5723877 0.305481 0.5679321 0.305481 0.5723877 0.003662109 0.9417725 0.003967285 0.6818848 0.1826172 0.9879761 0.3284912 0.8771362 0.335022 0.6572266 0.3417969 0.8774414 0.230835 0.4927368 0.3306274 0.5737305 0.3262329 0.6402588 0.3217163 0.6351318 0.003967285 0.9894409 0.3483887 0.6967163</float_array>
					<technique_common>
						<accessor source="#polygon1_UVArr0" count="194" stride="2">
							<param name="S" type="float" />
							<param name="T" type="float" />
						</accessor>
					</technique_common>
				</source>
				<vertices id="polygon1_Vertices">
					<input semantic="POSITION" source="#polygon1_Positions" />
				</vertices>
				<triangles material="body_S_mat" count="413">
					<input semantic="VERTEX" source="#polygon1_Vertices" offset="0" />
					<input semantic="NORMAL" source="#polygon1_Normals" offset="1" />
					<input semantic="TEXCOORD" source="#polygon1_UVs0" set="0" offset="2" />
					<p>2 2 2 1 1 1 0 0 0 3 3 3 1 1 1 2 2 2 4 4 4 3 3 3 2 2 2 5 5 5 3 3 3 4 4 4 6 6 6 5 5 5 4 4 4 7 7 7 5 5 5 6 6 6 8 8 8 7 7 7 6 6 6 9 9 9 7 7 7 8 8 8 10 10 10 9 9 9 8 8 8 11 11 11 9 9 9 10 10 10 12 12 12 11 11 11 10 10 10 13 13 13 11 11 11 12 12 12 14 14 14 13 13 13 12 12 12 15 15 15 13 13 13 14 14 14 16 16 16 15 15 15 14 14 14 17 17 17 15 15 15 16 16 16 18 18 18 17 17 17 16 16 16 2 2 2 17 17 17 18 18 18 4 4 4 2 2 2 18 18 18 21 21 21 20 20 20 19 19 19 22 22 22 20 20 20 21 21 21 23 23 23 22 22 22 21 21 21 24 24 24 22 22 22 23 23 23 25 25 25 24 24 24 23 23 23 26 26 26 24 24 24 25 25 25 27 27 27 26 26 26 25 25 25 28 28 28 26 26 26 27 27 27 13 13 13 28 28 28 27 27 27 29 29 29 28 28 28 13 13 13 15 15 15 29 29 29 13 13 13 30 30 30 29 29 29 15 15 15 17 17 17 30 30 30 15 15 15 0 0 0 17 17 17 2 2 2 30 30 30 17 17 17 0 0 0 31 31 31 30 30 30 0 0 0 32 32 32 30 30 30 31 31 31 33 33 33 32 32 32 31 31 31 34 34 34 32 32 32 33 33 33 35 35 35 34 34 34 33 33 33 36 36 36 34 34 34 35 35 35 37 37 37 36 36 36 35 35 35 38 38 38 36 36 36 37 37 37 39 39 39 38 38 38 37 37 37 40 40 40 38 38 38 39 39 39 3 3 3 19 19 19 1 1 1 21 21 21 19 19 19 3 3 3 5 5 5 21 21 21 3 3 3 23 23 23 21 21 21 5 5 5 7 7 7 23 23 23 5 5 5 25 25 25 23 23 23 7 7 7 9 9 9 25 25 25 7 7 7 27 27 27 25 25 25 9 9 9 11 11 11 27 27 27 9 9 9 13 13 13 27 27 27 11 11 11 22 22 22 40 40 40 20 20 20 38 38 38 40 40 40 22 22 22 24 24 24 38 38 38 22 22 22 36 36 36 38 38 38 24 24 24 26 26 26 36 36 36 24 24 24 34 34 34 36 36 36 26 26 26 28 28 28 34 34 34 26 26 26 32 32 32 34 34 34 28 28 28 29 29 29 32 32 32 28 28 28 30 30 30 32 32 32 29 29 29 18 18 18 6 6 6 4 4 4 14 14 14 6 6 6 18 18 18 16 16 16 14 14 14 18 18 18 12 12 12 6 6 6 14 14 14 8 8 8 6 6 6 12 12 12 10 10 10 8 8 8 12 12 12 43 43 43 42 42 42 41 41 41 44 44 44 42 42 42 43 43 43 45 45 45 44 44 44 43 43 43 46 46 46 44 44 44 45 45 45 19 19 19 46 46 46 45 45 45 47 47 47 46 46 46 19 19 19 20 20 20 47 47 47 19 19 19 48 48 48 47 47 47 20 20 20 49 49 49 48 48 48 20 20 20 50 50 50 48 48 48 49 49 49 51 51 51 50 50 50 49 49 49 52 52 52 50 50 50 51 51 51 53 53 53 52 52 52 51 51 51 54 54 54 52 52 52 53 53 53 56 56 56 31 31 31 55 55 55 33 33 33 31 31 31 56 56 56 57 57 57 33 33 33 56 56 56 58 58 58 33 33 33 57 57 57 59 59 59 58 58 58 57 57 57 60 60 60 58 58 58 59 59 59 61 61 61 60 60 60 59 59 59 62 62 62 60 60 60 61 61 61 63 63 63 62 62 62 61 61 61 66 66 66 65 65 65 64 64 64 67 67 67 65 65 65 66 66 66 68 68 68 67 67 67 66 66 66 69 69 69 67 67 67 68 68 68 59 59 59 69 69 69 68 68 68 57 57 57 69 69 69 59 59 59 42 42 42 70 70 70 41 41 41 71 71 71 70 70 70 42 42 42 72 72 72 71 71 71 42 42 42 52 52 52 71 71 71 72 72 72 50 50 50 52 52 52 72 72 72 68 68 68 61 61 61 59 59 59 73 73 73 61 61 61 68 68 68 66 66 66 73 73 73 68 68 68 74 74 74 73 73 73 66 66 66 64 64 64 74 74 74 66 66 66 44 44 44 72 72 72 42 42 42 75 75 75 72 72 72 44 44 44 46 46 46 75 75 75 44 44 44 47 47 47 75 75 75 46 46 46 77 77 77 1 1 1 76 76 76 0 0 0 1 1 1 77 77 77 78 78 78 0 0 0 77 77 77 79 79 79 0 0 0 78 78 78 62 62 62 35 35 35 60 60 60 37 37 37 35 35 35 62 62 62 80 80 80 37 37 37 62 62 62 81 81 81 37 37 37 80 80 80 75 75 75 50 50 50 72 72 72 48 48 48 50 50 50 75 75 75 47 47 47 48 48 48 75 75 75 71 71 71 82 82 82 70 70 70 54 54 54 82 82 82 71 71 71 52 52 52 54 54 54 71 71 71 40 40 40 49 49 49 20 20 20 83 83 83 49 49 49 40 40 40 84 84 84 83 83 83 40 40 40 39 39 39 84 84 84 40 40 40 85 85 85 84 84 84 39 39 39 81 81 81 85 85 85 39 39 39 67 67 67 86 86 86 65 65 65 87 87 87 86 86 86 67 67 67 69 69 69 87 87 87 67 67 67 45 45 45 1 1 1 19 19 19 76 76 76 1 1 1 45 45 45 79 79 79 31 31 31 0 0 0 55 55 55 31 31 31 79 79 79 58 58 58 35 35 35 33 33 33 60 60 60 35 35 35 58 58 58 88 88 88 73 73 73 74 74 74 63 63 63 73 73 73 88 88 88 56 56 56 69 69 69 57 57 57 87 87 87 69 69 69 56 56 56 37 37 37 81 81 81 39 39 39 73 73 73 63 63 63 61 61 61 90 90 90 89 89 89 74 74 74 91 91 91 89 89 89 90 90 90 92 92 92 91 91 91 90 90 90 93 93 93 91 91 91 92 92 92 94 94 94 93 93 93 92 92 92 95 95 95 93 93 93 94 94 94 96 96 96 95 95 95 94 94 94 97 97 97 95 95 95 96 96 96 98 98 98 97 97 97 96 96 96 96 96 96 99 99 99 98 98 98 100 100 100 99 99 99 96 96 96 94 94 94 100 100 100 96 96 96 101 101 101 100 100 100 94 94 94 102 102 102 101 101 101 94 94 94 103 103 103 101 101 101 102 102 102 104 104 104 103 103 103 102 102 102 105 105 105 104 104 104 54 54 54 103 103 103 104 104 104 105 105 105 106 106 106 103 103 103 105 105 105 100 100 100 103 103 103 106 106 106 107 107 107 100 100 100 106 106 106 99 99 99 100 100 100 107 107 107 89 89 89 88 88 88 74 74 74 108 108 108 88 88 88 89 89 89 91 91 91 108 108 108 89 89 89 95 95 95 108 108 108 91 91 91 93 93 93 95 95 95 91 91 91 53 53 53 105 105 105 54 54 54 106 106 106 105 105 105 53 53 53 51 51 51 106 106 106 53 53 53 107 107 107 106 106 106 51 51 51 109 109 109 95 95 95 97 97 97 108 108 108 95 95 95 109 109 109 63 63 63 108 108 108 109 109 109 88 88 88 108 108 108 63 63 63 102 102 102 111 111 111 110 110 110 112 112 112 111 111 111 102 102 102 94 94 94 112 112 112 102 102 102 92 92 92 112 112 112 94 94 94 113 113 115 110 110 114 111 111 113 114 114 116 110 110 114 113 113 115 115 115 117 114 114 116 113 113 115 118 118 115 117 117 116 116 116 117 119 119 114 117 117 116 118 118 115 120 120 113 119 119 114 118 118 115 121 121 120 114 114 119 115 115 118 122 122 121 114 114 119 121 121 120 104 104 122 122 122 121 121 121 120 102 102 102 122 122 123 104 104 104 114 114 124 122 122 123 102 102 102 110 110 110 114 114 124 102 102 102 117 117 119 123 123 120 116 116 118 124 124 121 123 123 120 117 117 119 124 124 125 92 92 92 90 90 90 117 117 126 92 92 92 124 124 125 119 119 127 92 92 92 117 117 126 120 120 128 92 92 92 119 119 127 120 120 128 112 112 112 92 92 92 111 111 111 112 112 112 120 120 128 123 123 120 124 124 121 90 90 122 101 101 101 103 103 103 100 100 100 127 127 131 126 126 130 125 125 129 128 128 132 126 126 130 127 127 131 129 129 133 128 128 132 127 127 131 130 130 134 128 128 132 129 129 133 131 131 135 130 130 134 129 129 133 132 132 136 130 130 134 131 131 135 133 133 133 132 132 136 131 131 135 134 134 134 132 132 136 133 133 133 135 135 132 134 134 134 133 133 133 136 136 137 134 134 134 135 135 132 137 137 130 136 136 137 135 135 132 138 138 138 136 136 137 137 137 130 139 139 139 138 138 138 137 137 130 140 140 140 138 138 138 139 139 139 141 141 140 140 140 140 139 139 139 142 142 141 140 140 140 141 141 140 143 143 142 142 142 141 141 141 140 144 144 143 142 142 141 143 143 142 145 145 144 144 144 143 143 143 142 146 146 145 144 144 143 145 145 144 147 147 146 146 146 145 145 145 144 148 148 147 146 146 145 147 147 146 149 149 145 148 148 147 147 147 146 150 150 148 148 148 147 149 149 145 151 151 143 150 150 148 149 149 145 152 152 141 150 150 148 151 151 143 153 153 142 152 152 141 151 151 143 140 140 140 152 152 141 153 153 142 138 138 138 140 140 140 153 153 142 155 155 129 137 137 130 154 154 131 156 156 149 137 137 130 155 155 129 157 157 149 156 156 149 155 155 129 158 158 139 156 156 149 157 157 149 126 126 130 158 158 139 157 157 149 159 159 138 158 158 139 126 126 130 160 160 137 159 159 138 126 126 130 161 161 150 159 159 138 160 160 137 130 130 134 161 161 150 160 160 137 162 162 151 161 161 150 130 130 134 132 132 136 162 162 151 130 130 134 134 134 134 162 162 151 132 132 136 163 163 152 78 78 78 77 77 77 164 164 153 78 78 78 163 163 152 165 165 154 164 164 153 163 163 152 166 166 155 164 164 153 165 165 154 167 167 156 166 166 155 165 165 154 168 168 157 166 166 155 167 167 156 169 169 158 168 168 157 167 167 156 87 87 87 168 168 157 169 169 158 86 86 86 87 87 87 169 169 158 172 172 161 171 171 160 170 170 159 173 173 162 171 171 160 172 172 161 174 174 163 173 173 162 172 172 161 175 175 164 173 173 162 174 174 163 176 176 165 175 175 164 174 174 163 177 177 166 175 175 164 176 176 165 170 170 159 177 177 166 176 176 165 171 171 160 177 177 166 170 170 159 180 180 169 179 179 168 178 178 167 181 181 168 179 179 168 180 180 169 182 182 170 181 181 168 180 180 169 183 183 171 181 181 168 182 182 170 184 184 172 183 183 171 182 182 170 185 185 171 183 183 171 184 184 172 178 178 167 185 185 171 184 184 172 179 179 168 185 185 171 178 178 167 188 188 167 187 187 168 186 186 169 189 189 171 187 187 168 188 188 167 190 190 172 189 189 171 188 188 167 191 191 171 189 189 171 190 190 172 192 192 170 191 191 171 190 190 172 193 193 168 191 191 171 192 192 170 186 186 169 193 193 168 192 192 170 187 187 168 193 193 168 186 186 169 196 196 159 195 195 160 194 194 161 197 197 166 195 195 160 196 196 159 198 198 165 197 197 166 196 196 159 199 199 164 197 197 166 198 198 165 200 200 163 199 199 164 198 198 165 201 201 162 199 199 164 200 200 163 194 194 161 201 201 162 200 200 163 195 195 160 201 201 162 194 194 161 109 109 109 62 62 62 63 63 63 80 80 80 62 62 62 109 109 109 97 97 97 80 80 80 109 109 109 81 81 81 80 80 80 97 97 97 98 98 98 81 81 81 97 97 97 85 85 85 81 81 81 98 98 98 84 84 84 85 85 85 98 98 98 166 166 155 78 78 78 164 164 153 79 79 79 78 78 78 166 166 155 168 168 157 79 79 79 166 166 155 55 55 55 79 79 79 168 168 157 87 87 87 55 55 55 168 168 157 56 56 56 55 55 55 87 87 87 161 161 150 145 145 144 143 143 142 202 202 173 145 145 144 161 161 150 162 162 151 202 202 173 161 161 150 203 203 150 202 202 173 162 162 151 134 134 134 203 203 150 162 162 151 136 136 137 203 203 150 134 134 134 202 202 173 147 147 146 145 145 144 204 204 144 147 147 146 202 202 173 203 203 150 204 204 144 202 202 173 153 153 142 204 204 144 203 203 150 138 138 138 153 153 142 203 203 150 142 142 141 152 152 141 140 140 140 205 205 174 152 152 141 142 142 141 206 206 148 205 205 174 142 142 141 148 148 147 205 205 174 206 206 148 146 146 145 148 148 147 206 206 148 99 99 99 84 84 84 98 98 98 83 83 83 84 84 84 99 99 99 107 107 107 83 83 83 99 99 99 49 49 49 83 83 83 107 107 107 51 51 51 49 49 49 107 107 107 43 43 43 76 76 76 45 45 45 207 207 175 76 76 76 43 43 43 208 208 176 207 207 175 43 43 43 209 209 177 207 207 175 208 208 176 207 207 175 77 77 77 76 76 76 163 163 152 77 77 77 207 207 175 209 209 177 163 163 152 207 207 175 165 165 154 163 163 152 209 209 177 65 65 65 210 210 178 64 64 64 211 211 179 210 210 178 65 65 65 86 86 86 211 211 179 65 65 65 169 169 158 211 211 179 86 86 86 213 213 181 70 70 70 212 212 180 41 41 41 70 70 70 213 213 181 208 208 176 41 41 41 213 213 181 43 43 43 41 41 41 208 208 176 113 113 115 214 214 182 115 115 117 215 215 183 214 214 182 113 113 115 111 111 113 215 215 183 113 113 115 120 120 113 215 215 183 111 111 113 118 118 115 215 215 183 120 120 113 216 216 182 215 215 183 118 118 115 116 116 117 216 216 182 118 118 115 217 217 184 216 216 182 116 116 117 218 218 185 121 121 120 115 115 118 219 219 186 121 121 120 218 218 185 220 220 187 219 219 186 218 218 185 154 154 131 133 133 133 221 221 188 135 135 132 133 133 133 154 154 131 137 137 130 135 135 132 154 154 131 221 221 188 129 129 133 127 127 131 131 131 135 129 129 133 221 221 188 133 133 133 131 131 135 221 221 188 222 222 189 171 171 160 173 173 162 177 177 166 171 171 160 222 222 189 175 175 164 177 177 166 222 222 189 204 204 144 149 149 145 147 147 146 151 151 143 149 149 145 204 204 144 153 153 142 151 151 143 204 204 144 223 223 190 181 181 168 183 183 171 179 179 168 181 181 168 223 223 190 185 185 171 179 179 168 223 223 190 123 123 120 217 217 185 116 116 118 224 224 186 217 217 185 123 123 120 210 210 191 224 224 186 123 123 120 212 212 180 54 54 54 104 104 104 82 82 82 54 54 54 212 212 180 70 70 70 82 82 82 212 212 180 225 225 190 193 193 168 187 187 168 191 191 171 193 193 168 225 225 190 189 189 171 191 191 171 225 225 190 226 226 189 201 201 162 195 195 160 199 199 164 201 201 162 226 226 189 197 197 166 199 199 164 226 226 189 128 128 132 160 160 137 126 126 130 130 130 134 160 160 137 128 128 132 158 158 139 141 141 140 139 139 139 159 159 138 141 141 140 158 158 139 159 159 138 143 143 142 141 141 140 161 161 150 143 143 142 159 159 138 121 121 120 212 212 191 104 104 122 219 219 186 212 212 191 121 121 120 74 74 74 210 210 178 90 90 90 64 64 64 210 210 178 74 74 74 214 214 182 218 218 184 115 115 117 220 220 192 218 218 184 214 214 182 228 228 193 220 220 187 227 227 187 219 219 186 220 220 187 228 228 193 157 157 149 125 125 129 126 126 130 155 155 129 125 125 129 157 157 149 224 224 186 227 227 187 217 217 185 228 228 193 227 227 187 224 224 186 227 227 192 216 216 182 217 217 184 220 220 192 216 216 182 227 227 192 216 216 182 214 214 182 215 215 183 220 220 192 214 214 182 216 216 182 150 150 148 205 205 174 148 148 147 152 152 141 205 205 174 150 150 148 144 144 143 206 206 148 142 142 141 146 146 145 206 206 148 144 144 143 156 156 149 139 139 139 137 137 130 158 158 139 139 139 139 156 156 149 123 123 120 90 90 122 210 210 191 136 136 137 138 138 138 203 203 150 185 185 171 223 223 190 183 183 171 222 222 189 173 173 162 175 175 164 225 225 190 187 187 168 189 189 171 197 197 166 226 226 189 195 195 160</p>
				</triangles>
			</mesh>
		</geometry>
		<geometry id="polygon2" name="polygon2">
			<mesh>
				<source id="polygon2_Positions">
					<float_array id="polygon2_PosArr" count="123">9.15793 1.141978 0.898342 10.97542 0.7745961 2.674741 9.15793 -0.566765 1.453548 10.97542 -0.9635529 2.674741 10.97542 -2.369749 1.65308 14.24852 -1.218524 2.118117 14.24852 -2.356514 0.0004119713 14.51996 -1.174621 2.049002 16.2251 -1.208642 0.871776 16.2251 -0.5200518 1.410562 16.75271 -0.3907888 0.98213 16.2251 0.3310992 1.410562 16.75271 0.6812792 0.60699 16.2251 1.019689 0.871776 16.2251 1.282704 1.56079E-08 14.24852 2.16756 0.0004120264 16.2251 1.019689 -0.871777 14.24852 0.9699212 -2.049702 16.2251 0.3310992 -1.410563 14.24852 -1.158876 -2.049702 16.2251 -0.5200518 -1.410563 16.2251 -1.208642 -0.871776 16.75271 -0.3907888 -0.982131 16.75271 -1.053364 -1.281729E-08 17.03427 -0.0944768 -1.14959E-09 9.15793 -1.622829 -1.974652E-08 10.97542 -2.369749 -1.65308 9.15793 -0.5667649 -1.45355 10.97542 -0.9635528 -2.674741 10.97542 0.7745962 -2.674741 13.81745 1.026007 -2.142944 10.97542 2.180795 -1.653081 10.97542 2.717913 3.307147E-08 10.97542 2.180795 1.65308 10.97542 -2.906867 -3.537065E-08 13.81745 -1.214962 -2.142945 16.2251 -1.471657 -1.790707E-08 16.75271 0.6812792 -0.606991 14.51996 0.9856631 2.049 14.24852 1.029568 2.118118 9.15793 1.141979 -0.898343</float_array>
					<technique_common>
						<accessor source="#polygon2_PosArr" count="41" stride="3">
							<param name="X" type="float" />
							<param name="Y" type="float" />
							<param name="Z" type="float" />
						</accessor>
					</technique_common>
				</source>
				<source id="polygon2_Normals">
					<float_array id="polygon2_NormArr" count="123">-0.6546021 0.6115723 0.4443359 -0.3372803 0.2915649 0.8951416 -0.6546021 -0.2335816 0.7189941 -0.2400513 -0.3007813 0.9229736 -0.2406616 -0.7991333 0.5509033 0.223938 -0.515625 0.8270264 0.2888184 -0.9572754 -0.01165773 0.3615112 -0.5019531 0.7857056 0.5452881 -0.7039185 0.4551392 0.5437012 -0.2698364 0.7946777 0.8405151 -0.1769409 0.512085 0.5960693 0.2593384 0.7598877 0.8310547 0.4592896 0.3137207 0.4951782 0.7310181 0.4694824 0.5717163 0.8204346 9.983019E-09 0.2888184 0.9572754 -0.0116577 0.479248 0.7330933 -0.482605 0.3157349 0.4981689 -0.8075562 0.538147 0.2211304 -0.8133545 0.3208008 -0.4158325 -0.8510132 0.5202637 -0.2756958 -0.8082886 0.5325928 -0.7062378 -0.4664307 0.8405151 -0.1769409 -0.512085 0.8253174 -0.5646973 -6.871216E-09 1 1.216796E-08 1.480594E-16 -0.6546021 -0.7559814 -9.198756E-09 -0.2363281 -0.7955933 -0.5578613 -0.6546021 -0.2335815 -0.7189941 -0.2339478 -0.3014526 -0.9243164 -0.3327637 0.2921753 -0.8966064 0.2148438 0.5039063 -0.8366089 -0.1354981 0.8128662 -0.5665283 -0.326416 0.9452515 1.150179E-08 -0.1408692 0.8175049 0.5584717 -0.2253418 -0.9743042 -1.18553E-08 0.2148438 -0.5039063 -0.8366089 0.5194702 -0.8544922 -1.039743E-08 0.8310547 0.4592896 -0.3137207 0.3615112 0.5019531 0.7857056 0.223938 0.515625 0.8270264 -0.6546021 0.6115723 -0.4443359</float_array>
					<technique_common>
						<accessor source="#polygon2_NormArr" count="41" stride="3">
							<param name="X" type="float" />
							<param name="Y" type="float" />
							<param name="Z" type="float" />
						</accessor>
					</technique_common>
				</source>
				<source id="polygon2_UVs0">
					<float_array id="polygon2_UVArr0" count="12">0.3125 0.5703125 0.3164063 0.5703125 0.3125 0.5664063 0.3164063 0.5664063 0.3203125 0.5664063 0.3203125 0.5703125</float_array>
					<technique_common>
						<accessor source="#polygon2_UVArr0" count="6" stride="2">
							<param name="S" type="float" />
							<param name="T" type="float" />
						</accessor>
					</technique_common>
				</source>
				<vertices id="polygon2_Vertices">
					<input semantic="POSITION" source="#polygon2_Positions" />
				</vertices>
				<triangles material="body_S_mat" count="75">
					<input semantic="VERTEX" source="#polygon2_Vertices" offset="0" />
					<input semantic="NORMAL" source="#polygon2_Normals" offset="1" />
					<input semantic="TEXCOORD" source="#polygon2_UVs0" set="0" offset="2" />
					<p>2 2 2 1 1 1 0 0 0 3 3 3 1 1 1 2 2 2 4 4 3 3 3 3 2 2 2 5 5 3 3 3 3 4 4 3 6 6 3 5 5 3 4 4 3 7 7 3 5 5 3 6 6 3 8 8 4 7 7 3 6 6 3 9 9 4 7 7 3 8 8 4 10 10 4 9 9 4 8 8 4 11 11 4 9 9 4 10 10 4 12 12 5 11 11 4 10 10 4 13 13 5 11 11 4 12 12 5 14 14 5 13 13 5 12 12 5 15 15 1 13 13 5 14 14 5 16 16 5 15 15 1 14 14 5 17 17 1 15 15 1 16 16 5 18 18 4 17 17 1 16 16 5 19 19 3 17 17 1 18 18 4 20 20 4 19 19 3 18 18 4 21 21 4 19 19 3 20 20 4 22 22 4 21 21 4 20 20 4 23 23 4 21 21 4 22 22 4 24 24 4 23 23 4 22 22 4 10 10 4 23 23 4 24 24 4 12 12 5 10 10 4 24 24 4 27 27 2 26 26 3 25 25 2 28 28 3 26 26 3 27 27 2 29 29 1 28 28 3 27 27 2 30 30 1 28 28 3 29 29 1 31 31 1 30 30 1 29 29 1 15 15 1 30 30 1 31 31 1 32 32 1 15 15 1 31 31 1 33 33 1 15 15 1 32 32 1 0 0 0 33 33 1 32 32 1 1 1 1 33 33 1 0 0 0 25 25 2 4 4 3 2 2 2 34 34 3 4 4 3 25 25 2 26 26 3 34 34 3 25 25 2 6 6 3 34 34 3 26 26 3 35 35 3 6 6 3 26 26 3 19 19 3 6 6 3 35 35 3 30 30 1 19 19 3 35 35 3 17 17 1 19 19 3 30 30 1 15 15 1 17 17 1 30 30 1 8 8 4 23 23 4 10 10 4 36 36 4 23 23 4 8 8 4 6 6 3 36 36 4 8 8 4 21 21 4 36 36 4 6 6 3 19 19 3 21 21 4 6 6 3 18 18 4 22 22 4 20 20 4 37 37 5 22 22 4 18 18 4 16 16 5 37 37 5 18 18 4 14 14 5 37 37 5 16 16 5 15 15 1 38 38 1 13 13 5 39 39 1 38 38 1 15 15 1 33 33 1 39 39 1 15 15 1 1 1 1 39 39 1 33 33 1 38 38 1 11 11 4 13 13 5 9 9 4 11 11 4 38 38 1 7 7 3 9 9 4 38 38 1 12 12 5 37 37 5 14 14 5 24 24 4 37 37 5 12 12 5 28 28 3 35 35 3 26 26 3 30 30 1 35 35 3 28 28 3 32 32 1 40 40 0 0 0 0 31 31 1 40 40 0 32 32 1 29 29 1 40 40 0 31 31 1 27 27 2 40 40 0 29 29 1 38 38 1 5 5 3 7 7 3 39 39 1 5 5 3 38 38 1 3 3 3 39 39 1 1 1 1 5 5 3 39 39 1 3 3 3 22 22 4 37 37 5 24 24 4 36 36 4 21 21 4 23 23 4 4 4 3 34 34 3 6 6 3</p>
				</triangles>
			</mesh>
		</geometry>
		<geometry id="polygon3" name="polygon3">
			<mesh>
				<source id="polygon3_Positions">
					<float_array id="polygon3_PosArr" count="123">-9.15793 -0.566765 1.453548 -10.97542 0.7745961 2.674741 -9.15793 1.141978 0.898342 -10.97542 2.180795 1.65308 -10.97542 2.717913 3.307147E-08 -14.24852 2.16756 0.0004120264 -10.97542 2.180795 -1.653081 -13.81745 1.026007 -2.142944 -10.97542 0.7745962 -2.674741 -10.97542 -0.9635528 -2.674741 -9.15793 -0.5667649 -1.45355 -10.97542 -2.369749 -1.65308 -9.15793 -1.622829 -1.974652E-08 -10.97542 -2.906867 -3.537065E-08 -10.97542 -2.369749 1.65308 -14.24852 -2.356514 0.0004119713 -14.24852 -1.218524 2.118117 -14.51996 -1.174621 2.049002 -14.51996 0.9856631 2.049 -16.2251 -0.5200518 1.410562 -16.2251 0.3310992 1.410562 -16.75271 -0.3907888 0.98213 -16.75271 0.6812792 0.60699 -17.03426 -0.0944768 -1.14959E-09 -16.75271 0.6812792 -0.606991 -16.75271 -0.3907888 -0.982131 -16.2251 0.3310992 -1.410563 -16.2251 -0.5200518 -1.410563 -14.24852 -1.158876 -2.049702 -16.2251 -1.208642 -0.871776 -16.2251 -1.471657 -1.790707E-08 -16.2251 -1.208642 0.871776 -16.75271 -1.053364 -1.281729E-08 -13.81745 -1.214962 -2.142945 -14.24852 0.9699212 -2.049702 -16.2251 1.019689 -0.871777 -16.2251 1.282704 1.56079E-08 -10.97542 -0.9635529 2.674741 -14.24852 1.029568 2.118118 -9.15793 1.141979 -0.898343 -16.2251 1.019689 0.871776</float_array>
					<technique_common>
						<accessor source="#polygon3_PosArr" count="41" stride="3">
							<param name="X" type="float" />
							<param name="Y" type="float" />
							<param name="Z" type="float" />
						</accessor>
					</technique_common>
				</source>
				<source id="polygon3_Normals">
					<float_array id="polygon3_NormArr" count="123">0.6546021 -0.2335816 0.7189941 0.3372803 0.2915649 0.8951416 0.6546021 0.6115723 0.4443359 0.1408692 0.8175049 0.5584717 0.326416 0.9452515 1.150179E-08 -0.2888184 0.9572754 -0.0116577 0.1354981 0.8128662 -0.5665283 -0.2148438 0.5039063 -0.8366089 0.3327637 0.2921753 -0.8966064 0.2339478 -0.3014526 -0.9243164 0.6546021 -0.2335815 -0.7189941 0.2363281 -0.7955933 -0.5578613 0.6546021 -0.7559814 -9.198756E-09 0.2253418 -0.9743042 -1.18553E-08 0.2406616 -0.7991333 0.5509033 -0.2888184 -0.9572754 -0.01165773 -0.223938 -0.515625 0.8270264 -0.3615112 -0.5019531 0.7857056 -0.3615112 0.5019531 0.7857056 -0.5437012 -0.2698364 0.7946777 -0.5960693 0.2593384 0.7598877 -0.8405151 -0.1769409 0.512085 -0.8310547 0.4592896 0.3137207 -1 1.216796E-08 1.480594E-16 -0.8310547 0.4592896 -0.3137207 -0.8405151 -0.1769409 -0.512085 -0.538147 0.2211304 -0.8133545 -0.5202637 -0.2756958 -0.8082886 -0.3208008 -0.4158325 -0.8510132 -0.5325928 -0.7062378 -0.4664307 -0.5194702 -0.8544922 -1.039743E-08 -0.5452881 -0.7039185 0.4551392 -0.8253174 -0.5646973 -6.871216E-09 -0.2148438 -0.5039063 -0.8366089 -0.3157349 0.4981689 -0.8075562 -0.479248 0.7330933 -0.482605 -0.5717163 0.8204346 9.983019E-09 0.2400513 -0.3007813 0.9229736 -0.223938 0.515625 0.8270264 0.6546021 0.6115723 -0.4443359 -0.4951782 0.7310181 0.4694824</float_array>
					<technique_common>
						<accessor source="#polygon3_NormArr" count="41" stride="3">
							<param name="X" type="float" />
							<param name="Y" type="float" />
							<param name="Z" type="float" />
						</accessor>
					</technique_common>
				</source>
				<source id="polygon3_UVs0">
					<float_array id="polygon3_UVArr0" count="12">0.3125 0.5664063 0.3164063 0.5703125 0.3125 0.5703125 0.3164063 0.5664063 0.3203125 0.5664063 0.3203125 0.5703125</float_array>
					<technique_common>
						<accessor source="#polygon3_UVArr0" count="6" stride="2">
							<param name="S" type="float" />
							<param name="T" type="float" />
						</accessor>
					</technique_common>
				</source>
				<vertices id="polygon3_Vertices">
					<input semantic="POSITION" source="#polygon3_Positions" />
				</vertices>
				<triangles material="body_S_mat" count="75">
					<input semantic="VERTEX" source="#polygon3_Vertices" offset="0" />
					<input semantic="NORMAL" source="#polygon3_Normals" offset="1" />
					<input semantic="TEXCOORD" source="#polygon3_UVs0" set="0" offset="2" />
					<p>2 2 2 1 1 1 0 0 0 3 3 1 1 1 1 2 2 2 4 4 1 3 3 1 2 2 2 5 5 1 3 3 1 4 4 1 6 6 1 5 5 1 4 4 1 7 7 1 5 5 1 6 6 1 8 8 1 7 7 1 6 6 1 9 9 3 7 7 1 8 8 1 10 10 0 9 9 3 8 8 1 11 11 3 9 9 3 10 10 0 12 12 0 11 11 3 10 10 0 13 13 3 11 11 3 12 12 0 14 14 3 13 13 3 12 12 0 15 15 3 13 13 3 14 14 3 16 16 3 15 15 3 14 14 3 17 17 3 15 15 3 16 16 3 18 18 1 17 17 3 16 16 3 19 19 4 17 17 3 18 18 1 20 20 4 19 19 4 18 18 1 21 21 4 19 19 4 20 20 4 22 22 5 21 21 4 20 20 4 23 23 4 21 21 4 22 22 5 24 24 5 23 23 4 22 22 5 25 25 4 23 23 4 24 24 5 26 26 4 25 25 4 24 24 5 27 27 4 25 25 4 26 26 4 28 28 3 27 27 4 26 26 4 29 29 4 27 27 4 28 28 3 15 15 3 29 29 4 28 28 3 30 30 4 29 29 4 15 15 3 31 31 4 30 30 4 15 15 3 32 32 4 30 30 4 31 31 4 21 21 4 32 32 4 31 31 4 23 23 4 32 32 4 21 21 4 15 15 3 11 11 3 13 13 3 33 33 3 11 11 3 15 15 3 28 28 3 33 33 3 15 15 3 7 7 1 33 33 3 28 28 3 34 34 1 7 7 1 28 28 3 5 5 1 7 7 1 34 34 1 35 35 5 5 5 1 34 34 1 36 36 5 5 5 1 35 35 5 24 24 5 36 36 5 35 35 5 22 22 5 36 36 5 24 24 5 0 0 0 14 14 3 12 12 0 37 37 3 14 14 3 0 0 0 1 1 1 37 37 3 0 0 0 38 38 1 37 37 3 1 1 1 3 3 1 38 38 1 1 1 1 5 5 1 38 38 1 3 3 1 32 32 4 29 29 4 30 30 4 25 25 4 29 29 4 32 32 4 23 23 4 25 25 4 32 32 4 39 39 2 4 4 1 2 2 2 6 6 1 4 4 1 39 39 2 8 8 1 6 6 1 39 39 2 40 40 5 18 18 1 5 5 1 20 20 4 18 18 1 40 40 5 22 22 5 20 20 4 40 40 5 17 17 3 31 31 4 15 15 3 19 19 4 31 31 4 17 17 3 35 35 5 26 26 4 24 24 5 34 34 1 26 26 4 35 35 5 33 33 3 9 9 3 11 11 3 7 7 1 9 9 3 33 33 3 37 37 3 16 16 3 14 14 3 38 38 1 16 16 3 37 37 3 38 38 1 18 18 1 16 16 3 5 5 1 18 18 1 38 38 1 40 40 5 36 36 5 22 22 5 5 5 1 36 36 5 40 40 5 31 31 4 19 19 4 21 21 4 27 27 4 29 29 4 25 25 4 34 34 1 28 28 3 26 26 4 39 39 2 10 10 0 8 8 1</p>
				</triangles>
			</mesh>
		</geometry>
	</library_geometries>
	<library_controllers>
		<controller id="polygon0_Controller">
			<skin source="#polygon0">
				<bind_shape_matrix>1 0 0 0 0 1 0 0 0 0 1 0 0 0 0 1</bind_shape_matrix>
				<source id="polygon0_Joints">
					<Name_array id="polygon0_JointArr" count="18">body_set bone_root Hips CenterMouth LeftMouth RightMouth Tongue0 Tongue1 Head LeftShoulder LeftArm LeftHand Props0 Props1 Props2 RightShoulder RightArm RightHand</Name_array>
					<technique_common>
						<accessor source="#polygon0_JointArr" count="18">
							<param name="JOINT" type="Name" />
						</accessor>
					</technique_common>
				</source>
				<source id="polygon0_Matrices">
					<float_array id="polygon0_MatArr" count="288">1 0 0 0 0 1 0 0 0 0 1 0 0 0 0 1 1 0 0 0 0 1 0 0 0 0 1 0 0 0 0 1 1 0 0 0 0 0 -1 0 0 1 0 0 0 0 0 1 -1 0 0 0 0 -0.6947012 -0.7193841 -0.1767446 0 -0.7193841 0.6947012 -1.219569 0 0 0 1 -1 0 0 2.84 0 -0.6947012 -0.7193841 -0.1767439 0 -0.7193841 0.6947012 -11.29957 0 0 0 1 -1 0 0 -2.84 0 -0.6947012 -0.7193841 -0.1767439 0 -0.7193841 0.6947012 -11.29957 0 0 0 1 0.9999999 0 0 0 0 0.9206247 0.3907827 4.272567 0 -0.3907827 0.9206247 -3.009709 0 0 0 1 1 0 0 0 0 0.5878687 0.8091328 -0.1385282 0 -0.8091328 0.5878687 -8.526284 0 0 0 1 1 0 0 0 0 0 -1 0 0 1 0 -1.5 0 0 0 1 0 -1 0 0 0 0 -1 0 1 0 0 -0.86 0 0 0 1 0 -1 0 0 0 0 -1 0 1 0 0 -10.08 0 0 0 1 0 -1 0 0 0 0 -1 0 1 0 0 -14.3 0 0 0 1 1 0 0 0 0 -1 0 -0.77 0 0 -1 -0.62 0 0 0 1 1 0 0 0 0 -1 0 -0.77 0 0 -1 -12.35 0 0 0 1 1 0 0 0 0 -1 0 -0.77 0 0 -1 -15.25 0 0 0 1 0 1 0 0 0 0 -1 0 -1 0 0 -0.86 0 0 0 1 0 1 0 0 0 0 -1 0 -1 0 0 -10.08 0 0 0 1 0 1 0 0 0 0 -1 0 -1 0 0 -14.3 0 0 0 1</float_array>
					<technique_common>
						<accessor source="#polygon0_MatArr" count="18" stride="16">
							<param type="float4x4" />
						</accessor>
					</technique_common>
				</source>
				<source id="polygon0_Weights">
					<float_array id="polygon0_WeightArr" count="1">1</float_array>
					<technique_common>
						<accessor source="#polygon0_WeightArr" count="1">
							<param type="float" />
						</accessor>
					</technique_common>
				</source>
				<joints>
					<input semantic="JOINT" source="#polygon0_Joints" />
					<input semantic="INV_BIND_MATRIX" source="#polygon0_Matrices" />
				</joints>
				<vertex_weights count="15">
					<input semantic="JOINT" offset="0" source="#polygon0_Joints" />
					<input semantic="WEIGHT" offset="1" source="#polygon0_Weights" />
					<vcount>1 1 1 1 1 1 1 1 1 1 1 1 1 1 1</vcount>
					<v>2 0 2 0 2 0 2 0 2 0 2 0 2 0 2 0 2 0 2 0 2 0 2 0 2 0 2 0 2 0</v>
				</vertex_weights>
			</skin>
		</controller>
		<controller id="polygon1_Controller">
			<skin source="#polygon1">
				<bind_shape_matrix>1 0 0 0 0 1 0 0 0 0 1 0 0 0 0 1</bind_shape_matrix>
				<source id="polygon1_Joints">
					<Name_array id="polygon1_JointArr" count="18">body_set bone_root Hips CenterMouth LeftMouth RightMouth Tongue0 Tongue1 Head LeftShoulder LeftArm LeftHand Props0 Props1 Props2 RightShoulder RightArm RightHand</Name_array>
					<technique_common>
						<accessor source="#polygon1_JointArr" count="18">
							<param name="JOINT" type="Name" />
						</accessor>
					</technique_common>
				</source>
				<source id="polygon1_Matrices">
					<float_array id="polygon1_MatArr" count="288">1 0 0 0 0 1 0 0 0 0 1 0 0 0 0 1 1 0 0 0 0 1 0 0 0 0 1 0 0 0 0 1 1 0 0 0 0 0 -1 0 0 1 0 0 0 0 0 1 -1 0 0 0 0 -0.6947012 -0.7193841 -0.1767446 0 -0.7193841 0.6947012 -1.219569 0 0 0 1 -1 0 0 2.84 0 -0.6947012 -0.7193841 -0.1767439 0 -0.7193841 0.6947012 -11.29957 0 0 0 1 -1 0 0 -2.84 0 -0.6947012 -0.7193841 -0.1767439 0 -0.7193841 0.6947012 -11.29957 0 0 0 1 0.9999999 0 0 0 0 0.9206247 0.3907827 4.272567 0 -0.3907827 0.9206247 -3.009709 0 0 0 1 1 0 0 0 0 0.5878687 0.8091328 -0.1385282 0 -0.8091328 0.5878687 -8.526284 0 0 0 1 1 0 0 0 0 0 -1 0 0 1 0 -1.5 0 0 0 1 0 -1 0 0 0 0 -1 0 1 0 0 -0.86 0 0 0 1 0 -1 0 0 0 0 -1 0 1 0 0 -10.08 0 0 0 1 0 -1 0 0 0 0 -1 0 1 0 0 -14.3 0 0 0 1 1 0 0 0 0 -1 0 -0.77 0 0 -1 -0.62 0 0 0 1 1 0 0 0 0 -1 0 -0.77 0 0 -1 -12.35 0 0 0 1 1 0 0 0 0 -1 0 -0.77 0 0 -1 -15.25 0 0 0 1 0 1 0 0 0 0 -1 0 -1 0 0 -0.86 0 0 0 1 0 1 0 0 0 0 -1 0 -1 0 0 -10.08 0 0 0 1 0 1 0 0 0 0 -1 0 -1 0 0 -14.3 0 0 0 1</float_array>
					<technique_common>
						<accessor source="#polygon1_MatArr" count="18" stride="16">
							<param type="float4x4" />
						</accessor>
					</technique_common>
				</source>
				<source id="polygon1_Weights">
					<float_array id="polygon1_WeightArr" count="6">1 0.5 0.6 0.4 0.9 0.1</float_array>
					<technique_common>
						<accessor source="#polygon1_WeightArr" count="6">
							<param type="float" />
						</accessor>
					</technique_common>
				</source>
				<joints>
					<input semantic="JOINT" source="#polygon1_Joints" />
					<input semantic="INV_BIND_MATRIX" source="#polygon1_Matrices" />
				</joints>
				<vertex_weights count="229">
					<input semantic="JOINT" offset="0" source="#polygon1_Joints" />
					<input semantic="WEIGHT" offset="1" source="#polygon1_Weights" />
					<vcount>2 2 2 2 2 2 2 1 1 1 1 1 1 2 2 2 1 2 2 2 2 2 2 1 1 1 1 1 2 2 2 2 2 2 2 2 2 2 2 2 2 1 2 1 2 1 2 1 1 1 2 1 2 1 1 1 1 2 1 2 1 2 1 1 1 1 2 2 2 2 1 2 2 2 1 2 1 1 1 1 1 1 1 1 1 1 1 1 1 2 1 2 1 2 2 2 2 1 1 1 2 2 1 2 1 2 2 1 2 1 1 2 2 1 2 1 1 2 1 1 2 1 2 1 2 1 1 1 1 1 1 1 1 1 1 1 1 1 1 1 2 2 1 2 1 2 1 1 1 1 1 1 1 2 1 1 1 1 1 1 1 2 2 1 1 1 1 1 1 1 1 1 1 1 1 1 1 1 1 1 1 1 1 1 1 1 1 1 1 1 1 1 1 1 1 1 1 1 1 1 1 1 2 2 2 1 1 1 1 1 1 1 1 1 1 1 1 1 1 1 1 1 1 1 1 1 1 1 1</vcount>
					<v>2 1 12 1 2 1 12 1 12 2 13 3 12 1 13 1 13 4 14 5 13 4 14 5 13 5 14 4 14 0 14 0 14 0 14 0 14 0 14 0 13 5 14 4 13 5 14 4 13 4 14 5 13 0 12 2 13 3 13 4 14 5 2 1 12 1 2 1 12 1 12 1 13 1 12 1 13 1 13 0 13 0 14 0 13 0 14 0 13 4 14 5 13 4 14 5 12 2 13 3 2 1 12 1 12 1 13 1 2 1 12 1 12 1 13 1 2 1 12 1 12 1 13 1 2 1 12 1 12 1 13 1 2 1 12 1 2 1 12 1 2 0 2 1 15 1 2 0 2 1 15 1 2 0 2 1 15 1 12 0 2 0 2 0 2 1 15 1 2 0 2 1 15 1 2 0 2 0 2 0 2 0 2 1 9 1 12 0 2 1 9 1 2 0 2 1 9 1 2 0 2 0 2 0 2 0 2 1 9 1 2 1 9 1 9 1 10 1 2 1 9 1 2 0 2 1 15 1 15 1 16 1 2 1 9 1 2 0 2 1 15 1 2 0 2 0 2 0 2 0 2 0 2 0 2 0 2 0 2 0 2 0 2 0 2 0 2 0 2 1 3 1 2 0 2 1 3 1 4 0 3 1 4 1 4 1 5 1 2 1 3 1 2 1 4 1 2 0 2 0 2 0 2 1 3 1 3 1 5 1 5 0 2 1 3 1 2 0 2 1 3 1 2 1 3 1 2 0 2 1 3 1 2 0 5 0 4 1 5 1 4 1 5 1 2 0 3 1 5 1 2 0 2 0 3 1 4 1 2 0 4 0 4 1 5 1 2 0 3 1 5 1 2 0 3 1 4 1 6 0 6 0 6 0 6 0 6 0 6 0 6 0 6 0 6 0 6 0 6 0 6 0 6 0 6 0 6 0 6 1 7 1 6 1 7 1 7 0 6 1 7 1 7 0 6 1 7 1 7 0 7 0 7 0 7 0 7 0 7 0 7 0 6 1 7 1 6 0 6 0 6 0 6 0 6 0 6 0 6 0 6 1 7 1 6 1 7 1 2 0 2 0 2 0 2 0 2 0 2 0 2 0 2 0 2 0 2 0 2 0 2 0 2 0 2 0 2 0 2 0 2 0 2 0 2 0 2 0 2 0 2 0 2 0 2 0 2 0 2 0 2 0 2 0 2 0 2 0 2 0 2 0 2 0 2 0 2 0 2 0 2 0 2 0 2 0 6 1 7 1 6 1 7 1 6 1 7 1 7 0 7 0 2 0 2 0 2 0 2 0 2 0 2 0 2 0 2 0 3 0 2 0 2 0 2 0 2 0 2 0 6 0 2 0 2 0 2 0 2 0 2 0 2 0 2 0</v>
				</vertex_weights>
			</skin>
		</controller>
		<controller id="polygon2_Controller">
			<skin source="#polygon2">
				<bind_shape_matrix>1 0 0 0 0 1 0 0 0 0 1 0 0 0 0 1</bind_shape_matrix>
				<source id="polygon2_Joints">
					<Name_array id="polygon2_JointArr" count="18">body_set bone_root Hips CenterMouth LeftMouth RightMouth Tongue0 Tongue1 Head LeftShoulder LeftArm LeftHand Props0 Props1 Props2 RightShoulder RightArm RightHand</Name_array>
					<technique_common>
						<accessor source="#polygon2_JointArr" count="18">
							<param name="JOINT" type="Name" />
						</accessor>
					</technique_common>
				</source>
				<source id="polygon2_Matrices">
					<float_array id="polygon2_MatArr" count="288">1 0 0 0 0 1 0 0 0 0 1 0 0 0 0 1 1 0 0 0 0 1 0 0 0 0 1 0 0 0 0 1 1 0 0 0 0 0 -1 0 0 1 0 0 0 0 0 1 -1 0 0 0 0 -0.6947012 -0.7193841 -0.1767446 0 -0.7193841 0.6947012 -1.219569 0 0 0 1 -1 0 0 2.84 0 -0.6947012 -0.7193841 -0.1767439 0 -0.7193841 0.6947012 -11.29957 0 0 0 1 -1 0 0 -2.84 0 -0.6947012 -0.7193841 -0.1767439 0 -0.7193841 0.6947012 -11.29957 0 0 0 1 0.9999999 0 0 0 0 0.9206247 0.3907827 4.272567 0 -0.3907827 0.9206247 -3.009709 0 0 0 1 1 0 0 0 0 0.5878687 0.8091328 -0.1385282 0 -0.8091328 0.5878687 -8.526284 0 0 0 1 1 0 0 0 0 0 -1 0 0 1 0 -1.5 0 0 0 1 0 -1 0 0 0 0 -1 0 1 0 0 -0.86 0 0 0 1 0 -1 0 0 0 0 -1 0 1 0 0 -10.08 0 0 0 1 0 -1 0 0 0 0 -1 0 1 0 0 -14.3 0 0 0 1 1 0 0 0 0 -1 0 -0.77 0 0 -1 -0.62 0 0 0 1 1 0 0 0 0 -1 0 -0.77 0 0 -1 -12.35 0 0 0 1 1 0 0 0 0 -1 0 -0.77 0 0 -1 -15.25 0 0 0 1 0 1 0 0 0 0 -1 0 -1 0 0 -0.86 0 0 0 1 0 1 0 0 0 0 -1 0 -1 0 0 -10.08 0 0 0 1 0 1 0 0 0 0 -1 0 -1 0 0 -14.3 0 0 0 1</float_array>
					<technique_common>
						<accessor source="#polygon2_MatArr" count="18" stride="16">
							<param type="float4x4" />
						</accessor>
					</technique_common>
				</source>
				<source id="polygon2_Weights">
					<float_array id="polygon2_WeightArr" count="6">1 0.5 0.6 0.4 0.9 0.1</float_array>
					<technique_common>
						<accessor source="#polygon2_WeightArr" count="6">
							<param type="float" />
						</accessor>
					</technique_common>
				</source>
				<joints>
					<input semantic="JOINT" source="#polygon2_Joints" />
					<input semantic="INV_BIND_MATRIX" source="#polygon2_Matrices" />
				</joints>
				<vertex_weights count="41">
					<input semantic="JOINT" offset="0" source="#polygon2_Joints" />
					<input semantic="WEIGHT" offset="1" source="#polygon2_Weights" />
					<vcount>2 2 2 2 2 1 1 1 1 1 1 1 1 1 1 1 1 1 1 1 1 1 1 1 1 2 2 2 2 2 1 2 2 2 2 1 1 1 1 1 2</vcount>
					<v>9 1 10 1 9 1 10 1 9 1 10 1 9 1 10 1 9 1 10 1 10 0 10 0 10 0 11 0 11 0 11 0 11 0 11 0 11 0 11 0 10 0 11 0 10 0 11 0 10 0 11 0 11 0 11 0 11 0 11 0 9 1 10 1 9 1 10 1 9 1 10 1 9 1 10 1 9 1 10 1 10 0 9 1 10 1 9 1 10 1 9 1 10 1 9 1 10 1 10 0 11 0 11 0 10 0 10 0 9 1 10 1</v>
				</vertex_weights>
			</skin>
		</controller>
		<controller id="polygon3_Controller">
			<skin source="#polygon3">
				<bind_shape_matrix>1 0 0 0 0 1 0 0 0 0 1 0 0 0 0 1</bind_shape_matrix>
				<source id="polygon3_Joints">
					<Name_array id="polygon3_JointArr" count="18">body_set bone_root Hips CenterMouth LeftMouth RightMouth Tongue0 Tongue1 Head LeftShoulder LeftArm LeftHand Props0 Props1 Props2 RightShoulder RightArm RightHand</Name_array>
					<technique_common>
						<accessor source="#polygon3_JointArr" count="18">
							<param name="JOINT" type="Name" />
						</accessor>
					</technique_common>
				</source>
				<source id="polygon3_Matrices">
					<float_array id="polygon3_MatArr" count="288">1 0 0 0 0 1 0 0 0 0 1 0 0 0 0 1 1 0 0 0 0 1 0 0 0 0 1 0 0 0 0 1 1 0 0 0 0 0 -1 0 0 1 0 0 0 0 0 1 -1 0 0 0 0 -0.6947012 -0.7193841 -0.1767446 0 -0.7193841 0.6947012 -1.219569 0 0 0 1 -1 0 0 2.84 0 -0.6947012 -0.7193841 -0.1767439 0 -0.7193841 0.6947012 -11.29957 0 0 0 1 -1 0 0 -2.84 0 -0.6947012 -0.7193841 -0.1767439 0 -0.7193841 0.6947012 -11.29957 0 0 0 1 0.9999999 0 0 0 0 0.9206247 0.3907827 4.272567 0 -0.3907827 0.9206247 -3.009709 0 0 0 1 1 0 0 0 0 0.5878687 0.8091328 -0.1385282 0 -0.8091328 0.5878687 -8.526284 0 0 0 1 1 0 0 0 0 0 -1 0 0 1 0 -1.5 0 0 0 1 0 -1 0 0 0 0 -1 0 1 0 0 -0.86 0 0 0 1 0 -1 0 0 0 0 -1 0 1 0 0 -10.08 0 0 0 1 0 -1 0 0 0 0 -1 0 1 0 0 -14.3 0 0 0 1 1 0 0 0 0 -1 0 -0.77 0 0 -1 -0.62 0 0 0 1 1 0 0 0 0 -1 0 -0.77 0 0 -1 -12.35 0 0 0 1 1 0 0 0 0 -1 0 -0.77 0 0 -1 -15.25 0 0 0 1 0 1 0 0 0 0 -1 0 -1 0 0 -0.86 0 0 0 1 0 1 0 0 0 0 -1 0 -1 0 0 -10.08 0 0 0 1 0 1 0 0 0 0 -1 0 -1 0 0 -14.3 0 0 0 1</float_array>
					<technique_common>
						<accessor source="#polygon3_MatArr" count="18" stride="16">
							<param type="float4x4" />
						</accessor>
					</technique_common>
				</source>
				<source id="polygon3_Weights">
					<float_array id="polygon3_WeightArr" count="6">1 0.5 0.6 0.4 0.9 0.1</float_array>
					<technique_common>
						<accessor source="#polygon3_WeightArr" count="6">
							<param type="float" />
						</accessor>
					</technique_common>
				</source>
				<joints>
					<input semantic="JOINT" source="#polygon3_Joints" />
					<input semantic="INV_BIND_MATRIX" source="#polygon3_Matrices" />
				</joints>
				<vertex_weights count="41">
					<input semantic="JOINT" offset="0" source="#polygon3_Joints" />
					<input semantic="WEIGHT" offset="1" source="#polygon3_Weights" />
					<vcount>2 2 2 2 2 1 2 1 2 2 2 2 2 2 2 1 1 1 1 1 1 1 1 1 1 1 1 1 1 1 1 1 1 1 1 1 1 2 1 2 1</vcount>
					<v>15 1 16 1 15 1 16 1 15 1 16 1 15 1 16 1 15 1 16 1 16 0 15 1 16 1 16 0 15 1 16 1 15 1 16 1 15 1 16 1 15 1 16 1 15 1 16 1 15 1 16 1 15 1 16 1 16 0 16 0 16 0 16 0 17 0 17 0 17 0 17 0 17 0 17 0 17 0 17 0 17 0 16 0 17 0 17 0 17 0 17 0 16 0 16 0 17 0 17 0 15 1 16 1 16 0 15 1 16 1 17 0</v>
				</vertex_weights>
			</skin>
		</controller>
	</library_controllers>
	<library_visual_scenes>
		<visual_scene id="RootNode" name="RootNode">
			<node id="body_set" name="body_set" sid="body_set" type="JOINT">
				<node id="bone_root" name="bone_root" sid="bone_root" type="JOINT">
					<node id="Hips" name="Hips" sid="Hips" type="JOINT">
						<rotate>1 0 0 -90</rotate>
						<node id="CenterMouth" name="CenterMouth" sid="CenterMouth" type="JOINT">
							<translate>0 -0.72 -1</translate>
							<rotate>0 1 0 180</rotate>
							<rotate>1 0 0 44</rotate>
							<node id="LeftMouth" name="LeftMouth" sid="LeftMouth" type="JOINT">
								<translate>-2.84 0 10.08</translate>
							</node>
							<node id="RightMouth" name="RightMouth" sid="RightMouth" type="JOINT">
								<translate>2.84 0 10.08</translate>
							</node>
							<node id="Tongue0" name="Tongue0" sid="Tongue0" type="JOINT">
								<translate>0 2.58 3.22</translate>
								<rotate>0 0 1 180</rotate>
								<rotate>1 0 0 -23</rotate>
								<node id="Tongue1" name="Tongue1" sid="Tongue1" type="JOINT">
									<translate>0 0 4.37</translate>
									<rotate>1 0 0 31</rotate>
								</node>
							</node>
						</node>
						<node id="Head" name="Head" sid="Head" type="JOINT">
							<translate>0 0 1.5</translate>
						</node>
						<node id="LeftShoulder" name="LeftShoulder" sid="LeftShoulder" type="JOINT">
							<translate>0.86 0 0</translate>
							<rotate>0 1 0 90</rotate>
							<node id="LeftArm" name="LeftArm" sid="LeftArm" type="JOINT">
								<translate>0 0 9.22</translate>
								<node id="LeftHand" name="LeftHand" sid="LeftHand" type="JOINT">
									<translate>0 0 4.22</translate>
								</node>
							</node>
						</node>
						<node id="Props0" name="Props0" sid="Props0" type="JOINT">
							<translate>0 0.62 -0.77</translate>
							<rotate>1 0 0 -90</rotate>
							<node id="Props1" name="Props1" sid="Props1" type="JOINT">
								<translate>0 0 11.73</translate>
								<node id="Props2" name="Props2" sid="Props2" type="JOINT">
									<translate>0 0 2.9</translate>
								</node>
							</node>
						</node>
						<node id="RightShoulder" name="RightShoulder" sid="RightShoulder" type="JOINT">
							<translate>-0.86 0 0</translate>
							<rotate>0 1 0 -90</rotate>
							<node id="RightArm" name="RightArm" sid="RightArm" type="JOINT">
								<translate>0 0 9.22</translate>
								<node id="RightHand" name="RightHand" sid="RightHand" type="JOINT">
									<translate>0 0 4.22</translate>
								</node>
							</node>
						</node>
					</node>
				</node>
			</node>
			<node id="polygon0" name="polygon0" type="NODE">
				<instance_controller url="#polygon0_Controller">
					<skeleton>#body_set</skeleton>
					<bind_material>
						<technique_common>
							<instance_material symbol="face_S_mat" target="#face_S_mat">
								<bind_vertex_input semantic="TEXCOORD0" input_semantic="TEXCOORD" input_set="0" />
								<bind_vertex_input semantic="TEXCOORD0" input_semantic="TEXCOORD" input_set="0" />
								<bind_vertex_input semantic="TEXCOORD0" input_semantic="TEXCOORD" input_set="0" />
							</instance_material>
						</technique_common>
					</bind_material>
				</instance_controller>
			</node>
			<node id="polygon1" name="polygon1" type="NODE">
				<instance_controller url="#polygon1_Controller">
					<skeleton>#body_set</skeleton>
					<bind_material>
						<technique_common>
							<instance_material symbol="body_S_mat" target="#body_S_mat">
								<bind_vertex_input semantic="TEXCOORD0" input_semantic="TEXCOORD" input_set="0" />
								<bind_vertex_input semantic="TEXCOORD0" input_semantic="TEXCOORD" input_set="0" />
								<bind_vertex_input semantic="TEXCOORD0" input_semantic="TEXCOORD" input_set="0" />
							</instance_material>
						</technique_common>
					</bind_material>
				</instance_controller>
			</node>
			<node id="polygon2" name="polygon2" type="NODE">
				<instance_controller url="#polygon2_Controller">
					<skeleton>#body_set</skeleton>
					<bind_material>
						<technique_common>
							<instance_material symbol="body_S_mat" target="#body_S_mat">
								<bind_vertex_input semantic="TEXCOORD0" input_semantic="TEXCOORD" input_set="0" />
								<bind_vertex_input semantic="TEXCOORD0" input_semantic="TEXCOORD" input_set="0" />
								<bind_vertex_input semantic="TEXCOORD0" input_semantic="TEXCOORD" input_set="0" />
							</instance_material>
						</technique_common>
					</bind_material>
				</instance_controller>
			</node>
			<node id="polygon3" name="polygon3" type="NODE">
				<instance_controller url="#polygon3_Controller">
					<skeleton>#body_set</skeleton>
					<bind_material>
						<technique_common>
							<instance_material symbol="body_S_mat" target="#body_S_mat">
								<bind_vertex_input semantic="TEXCOORD0" input_semantic="TEXCOORD" input_set="0" />
								<bind_vertex_input semantic="TEXCOORD0" input_semantic="TEXCOORD" input_set="0" />
								<bind_vertex_input semantic="TEXCOORD0" input_semantic="TEXCOORD" input_set="0" />
							</instance_material>
						</technique_common>
					</bind_material>
				</instance_controller>
			</node>
		</visual_scene>
	</library_visual_scenes>
	<scene>
		<instance_visual_scene url="#RootNode" />
	</scene>
</COLLADA>