# Blender 4.0.2
# www.blender.org
mtllib NES.mtl
o NES_16-bit
v 0.128000 0.044450 -0.101600
v 0.112880 -0.044450 -0.101600
v 0.128000 0.044450 0.101600
v 0.112880 -0.044450 0.101600
v -0.128000 0.044450 -0.101600
v -0.112880 -0.044450 -0.101600
v -0.128000 0.044450 0.101600
v -0.112880 -0.044450 0.101600
v 0.128000 -0.008282 -0.101600
v -0.128000 -0.008282 0.101600
v 0.128000 -0.008282 0.101600
v -0.128000 -0.008282 -0.101600
v -0.067273 -0.027905 0.101600
v -0.067273 -0.027915 0.105215
v -0.088823 -0.027905 0.101600
v -0.088823 -0.027915 0.105215
v -0.067273 -0.016514 0.101600
v -0.067273 -0.016524 0.105215
v -0.088823 -0.016514 0.101600
v -0.088823 -0.016524 0.105215
v -0.040036 -0.027905 0.101600
v -0.040036 -0.027915 0.105215
v -0.061587 -0.027905 0.101600
v -0.061587 -0.027915 0.105215
v -0.040036 -0.016514 0.101600
v -0.040036 -0.016524 0.105215
v -0.061587 -0.016514 0.101600
v -0.061587 -0.016524 0.105215
v 0.128000 -0.008282 -0.074893
v 0.128000 -0.008282 -0.031287
v 0.120649 -0.025866 -0.074893
v 0.120649 -0.025866 -0.031287
v 0.128000 -0.008282 -0.074893
v 0.128000 -0.008282 -0.031287
v 0.120649 -0.025866 -0.074893
v 0.120649 -0.025866 -0.031287
v 0.120649 -0.008282 -0.074893
v 0.120649 -0.008282 -0.031287
v 0.109882 -0.044450 -0.101600
v 0.044591 -0.044450 -0.101600
v 0.044591 -0.013993 -0.101600
v 0.109883 -0.013993 -0.101600
v 0.109882 -0.044450 -0.096570
v 0.044591 -0.044450 -0.096570
v 0.044591 -0.013993 -0.096570
v 0.109883 -0.013993 -0.096570
vn -0.0000 1.0000 -0.0000
vn -0.0000 -0.0000 1.0000
vn -1.0000 -0.0000 -0.0000
vn -0.0000 -0.0000 -1.0000
vn 1.0000 -0.0000 -0.0000
vn 0.9226 -0.3857 -0.0000
vn -0.9226 -0.3857 -0.0000
vn -0.0000 -1.0000 -0.0026
vn -0.0000 1.0000 0.0026
vn -0.0000 -1.0000 -0.0000
vt 0.687242 0.312761
vt 0.687242 0.021804
vt 0.978196 0.021804
vt 0.978196 0.312761
vt 0.312761 0.475827
vt 0.312761 0.648411
vt 0.021804 0.648411
vt 0.021804 0.475827
vt 0.645479 0.148308
vt 0.645479 0.320820
vt 0.354523 0.320820
vt 0.354523 0.148308
vt 0.763602 0.686011
vt 0.763602 0.785691
vt 0.689395 0.785691
vt 0.689396 0.686011
vt 0.314471 0.148719
vt 0.314471 0.321142
vt 0.276229 0.148719
vt 0.642550 0.475223
vt 0.642550 0.647807
vt 0.351593 0.647807
vt 0.351593 0.475223
vt 0.625365 0.356850
vt 0.446392 0.456530
vt 0.446392 0.356850
vt 0.314471 0.029715
vt 0.276229 0.090864
vt 0.213792 0.090864
vt 0.023514 0.029715
vt 0.645480 0.029490
vt 0.354523 0.029490
vt 0.295576 0.357454
vt 0.038988 0.357454
vt 0.127742 0.792494
vt 0.122566 0.792494
vt 0.122566 0.768001
vt 0.127742 0.768001
vt 0.175295 0.725593
vt 0.170119 0.725624
vt 0.170119 0.688358
vt 0.175295 0.688327
vt 0.508440 0.792382
vt 0.503264 0.792382
vt 0.503264 0.767889
vt 0.508440 0.767889
vt 0.270403 0.725605
vt 0.265227 0.725574
vt 0.265227 0.688327
vt 0.270403 0.688358
vt 0.597135 0.690913
vt 0.597135 0.722829
vt 0.567011 0.722829
vt 0.567011 0.690914
vt 0.217673 0.767982
vt 0.222849 0.767982
vt 0.222849 0.792475
vt 0.217673 0.792475
vt 0.127742 0.725593
vt 0.122566 0.725624
vt 0.122566 0.688358
vt 0.127742 0.688327
vt 0.555994 0.792382
vt 0.550817 0.792382
vt 0.550817 0.767889
vt 0.555994 0.767889
vt 0.222849 0.725605
vt 0.217673 0.725574
vt 0.217673 0.688327
vt 0.222849 0.688358
vt 0.525458 0.690913
vt 0.525458 0.722829
vt 0.505562 0.722829
vt 0.505562 0.690914
vt 0.270403 0.767982
vt 0.071834 0.688327
vt 0.080188 0.745876
vt 0.071834 0.745876
vt 0.213792 0.148358
vt 0.276229 0.148358
vt 0.645359 0.688231
vt 0.645359 0.750668
vt 0.637005 0.750668
vt 0.637005 0.688231
vt 0.029456 0.688327
vt 0.029456 0.746479
vt 0.021189 0.689528
vt 0.213792 0.148719
vt 0.023514 0.148719
vt 0.023514 0.321142
vt 0.460886 0.688231
vt 0.460886 0.762438
vt 0.453683 0.762438
vt 0.453683 0.688231
vt 0.372184 0.456530
vt 0.368777 0.356850
vt 0.372185 0.356850
vt 0.943885 0.354910
vt 0.943885 0.645867
vt 0.940478 0.362113
vt 0.940478 0.354910
vt 0.361726 0.688231
vt 0.361726 0.787870
vt 0.354523 0.787870
vt 0.354523 0.688231
vt 0.411306 0.688231
vt 0.411306 0.787818
vt 0.404103 0.787818
vt 0.404103 0.688231
vt 0.687297 0.645867
vt 0.687297 0.354910
vt 0.866271 0.354910
vt 0.866271 0.362113
s 0
usemtl NES_16-bit
f 1/1/1 5/2/1 7/3/1 3/4/1
f 11/5/2 3/6/2 7/7/2 10/8/2
f 10/9/3 7/10/3 5/11/3 12/12/3
f 44/13/4 45/14/4 46/15/4 43/16/4
f 9/17/5 1/18/5 29/19/5
f 12/20/4 5/21/4 1/22/4 9/23/4
f 6/24/4 12/20/4 41/25/4 40/26/4
f 2/27/6 31/28/6 32/29/6 4/30/6
f 8/31/7 10/9/7 12/12/7 6/32/7
f 4/33/2 11/5/2 10/8/2 8/34/2
f 13/35/8 14/36/8 16/37/8 15/38/8
f 15/39/3 16/40/3 20/41/3 19/42/3
f 19/43/9 20/44/9 18/45/9 17/46/9
f 17/47/5 18/48/5 14/49/5 13/50/5
f 20/51/2 16/52/2 14/53/2 18/54/2
f 21/55/8 22/56/8 24/57/8 23/58/8
f 23/59/3 24/60/3 28/61/3 27/62/3
f 27/63/9 28/64/9 26/65/9 25/66/9
f 25/67/5 26/68/5 22/69/5 21/70/5
f 28/71/2 24/72/2 22/73/2 26/74/2
f 32/75/1 30/75/1 34/75/1 36/75/1
f 31/76/2 29/77/2 37/78/2
f 31/75/1 32/75/1 36/75/1 35/75/1
f 29/75/1 31/75/1 35/75/1 33/75/1
f 38/79/5 32/29/5 31/28/5 37/80/5
f 29/81/10 30/82/10 38/83/10 37/84/10
f 30/85/4 32/86/4 38/87/4
f 4/30/6 32/29/6 30/88/6 11/89/6
f 31/28/6 2/27/6 9/17/6 29/19/6
f 29/19/5 1/18/5 3/90/5 30/88/5
f 30/88/5 3/90/5 11/89/5
f 41/91/10 42/92/10 46/93/10 45/94/10
f 41/25/4 12/20/4 9/23/4 42/95/4
f 42/95/4 9/23/4 2/96/4 39/97/4
f 2/98/10 4/99/10 43/100/10 39/101/10
f 42/102/3 39/103/3 43/104/3 46/105/3
f 40/106/5 41/107/5 45/108/5 44/109/5
f 8/110/10 6/111/10 40/112/10 44/113/10
f 8/110/10 44/113/10 43/100/10 4/99/10
